SplineFontDB: 3.0
FontName: Allerta-Regular
FullName: Allerta Regular
FamilyName: Allerta
Weight: Regular
Copyright: Copyright (c) 2009, Matt McInerney <matt@pixelspread.com> with Reserved Font Name Allerta.
Version: 001.001
ItalicAngle: 0
UnderlinePosition: -50
UnderlineWidth: 50
Ascent: 800
Descent: 200
sfntRevision: 0x00010083
LayerCount: 2
Layer: 0 0 "Back"  1
Layer: 1 0 "Fore"  0
XUID: [1021 288 713564382 9528056]
FSType: 0
OS2Version: 2
OS2_WeightWidthSlopeOnly: 0
OS2_UseTypoMetrics: 1
CreationTime: 1317380684
ModificationTime: 1317380684
PfmFamily: 17
TTFWeight: 400
TTFWidth: 5
LineGap: 0
VLineGap: 0
Panose: 2 0 0 0 0 0 0 0 0 0
OS2TypoAscent: 232
OS2TypoAOffset: 1
OS2TypoDescent: -46
OS2TypoDOffset: 1
OS2TypoLinegap: 0
OS2WinAscent: 0
OS2WinAOffset: 1
OS2WinDescent: 0
OS2WinDOffset: 1
HheadAscent: 0
HheadAOffset: 1
HheadDescent: 0
HheadDOffset: 1
OS2SubXSize: 700
OS2SubYSize: 650
OS2SubXOff: 0
OS2SubYOff: 140
OS2SupXSize: 700
OS2SupYSize: 650
OS2SupXOff: 0
OS2SupYOff: 477
OS2StrikeYSize: 50
OS2StrikeYPos: 250
OS2Vendor: 'pyrs'
OS2CodePages: 00000001.00000000
OS2UnicodeRanges: 80000027.00000002.00000000.00000000
Lookup: 258 0 0 "'kern' Horizontal Kerning in Latin lookup 0"  {"'kern' Horizontal Kerning in Latin lookup 0 subtable"  } ['kern' ('latn' <'dflt' > ) ]
DEI: 91125
LangName: 1033 "" "" "" "MattMcInerney: Allerta Regular: 2010" "Allerta-Regular" "Version 1.002" "" "" "Matt McInerney" "Matt McInerney" "" "" "http://pixelspread.com" "This Font Software is licensed under the SIL Open Font License, Version 1.1. This license is available with a FAQ at: http://scripts.sil.org/OFL" "http://scripts.sil.org/OFL" 
Encoding: UnicodeBmp
UnicodeInterp: none
NameList: Adobe Glyph List
DisplaySize: -36
AntiAlias: 1
FitToEm: 1
WinInfo: 34 34 13
BeginPrivate: 2
BlueValues 22 [-5 0 551 557 720 731]
OtherBlues 11 [-225 -225]
EndPrivate
BeginChars: 65568 217

StartChar: c
Encoding: 99 99 4
Width: 572
Flags: MW
HStem: -5 97<279.5 348 279.5 360.5> 460 94<285 358>
VStem: 68 125<226.5 330.5 226.5 354>
LayerCount: 2
Fore
SplineSet
448 141 m 1
 492 77 l 1
 448 22 401 -5 320 -5 c 0
 166 -5 68 119 68 275 c 0
 68 433 171 554 323 554 c 0
 404 554 459 527 503 472 c 1
 450 408 l 1
 428 434 392 460 324 460 c 0
 246 460 193 383 193 278 c 0
 193 175 240 92 319 92 c 0
 377 92 415 113 448 141 c 1
EndSplineSet
EndChar

StartChar: d
Encoding: 100 100 5
Width: 626
Flags: MW
HStem: -5 93<264.5 304> 0 21G<431 543 431 431> 465 91<261.5 308.5 224.5 340.5> 739 20G<424 543 543 543>
VStem: 49 125<274 326 274 384> 424 119<495 759 0 759>
LayerCount: 2
Fore
SplineSet
121 56 m 0xbc
 72 112 49 201 49 283 c 0
 49 485 172 556 277 556 c 0
 340 556 398 531 424 495 c 1
 424 759 l 1
 543 759 l 1
 543 0 l 1
 431 0 l 1x7c
 429 23 426 47 424 65 c 1
 417 31 343 -5 265 -5 c 0
 213 -5 159 12 121 56 c 0xbc
174 274 m 1
 175 171 226 88 303 88 c 0xbc
 383 88 432 173 432 276 c 0
 432 381 380 465 301 465 c 0
 222 465 174 378 174 274 c 1
EndSplineSet
EndChar

StartChar: e
Encoding: 101 101 6
Width: 649
Flags: MW
HStem: -4 96<293 350.5 293 367.5> 235 86<188 458 188 567 185 458> 465 92<286.5 327>
VStem: 70 115<199 235 193.5 354>
LayerCount: 2
Fore
SplineSet
314 557 m 0
 489 557 590 402 567 235 c 1
 185 235 l 1
 185 152 250 92 336 92 c 0
 365 92 428 105 465 143 c 1
 508 77 l 1
 465 24 412 -4 323 -4 c 0
 179 -4 70 122 70 276 c 0
 70 432 181 557 314 557 c 0
188 321 m 1
 458 321 l 1
 458 391 403 463 327 465 c 1
 246 465 188 397 188 321 c 1
EndSplineSet
EndChar

StartChar: f
Encoding: 102 102 7
Width: 460
Flags: MW
HStem: 0 21G<126 245 126 126> 471 80<54 126 54 128 247 332> 677 86<292.5 321.5 235 324>
VStem: 126 119<0 424 424 471 463 471>
LayerCount: 2
Fore
SplineSet
319 677 m 0
 266 677 251 619 247 551 c 1
 332 551 l 1
 332 471 l 1
 245 471 l 1
 245 455 245 439 245 424 c 2
 245 0 l 1
 126 0 l 1
 126 424 l 2
 126 440 126 455 126 471 c 1
 54 471 l 1
 54 551 l 1
 128 551 l 1
 136 663 168 763 302 763 c 0
 341 763 395 750 417 735 c 1
 379 665 l 1
 360 676 329 677 319 677 c 0
EndSplineSet
EndChar

StartChar: g
Encoding: 103 103 8
Width: 667
Flags: MW
HStem: -222 96<297.5 353.5 297.5 386.5> -5 93<283 323> 465 91<281 326.5 243.5 359> 531 20G<455 561 561 561>
VStem: 67 125<224.5 328 224.5 384.5> 442 118<0 55 0 57 0 57 0 65>
LayerCount: 2
Fore
SplineSet
196 -71 m 1xdc
 222 -115 282 -126 313 -126 c 0
 394 -126 442 -84 442 29 c 2
 442 55 l 2
 442 56 442 56 442 57 c 2
 443 62 l 2
 443 63 442 64 442 65 c 1
 435 31 362 -5 284 -5 c 0
 137 -5 67 134 67 283 c 0
 67 486 192 556 295 556 c 0xec
 358 556 416 531 442 495 c 1
 455 551 l 1
 561 551 l 1
 560 0 l 1
 549 -160 449 -222 324 -222 c 0
 251 -222 174 -198 128 -139 c 1
 196 -71 l 1xdc
450 279 m 1
 449 382 398 465 320 465 c 0
 242 465 192 379 192 277 c 0
 192 172 244 88 322 88 c 0
 402 88 450 174 450 279 c 1
EndSplineSet
EndChar

StartChar: h
Encoding: 104 104 9
Width: 595
Flags: MW
HStem: 0 21G<84 202 84 84 421 540 421 421> 467 90<331 366.5> 739 20G<84 202 202 202>
VStem: 84 118<0 193 193 195 195 412 412 414 414 420 495 759> 421 119<0 20 20 300 300 310>
LayerCount: 2
Fore
SplineSet
540 20 m 1
 540 20 l 1
 540 0 l 1
 421 0 l 1
 421 300 l 2
 421 389 410 467 323 467 c 0
 295 467 223 451 202 420 c 1
 202 414 l 2
 202 413 202 413 202 412 c 2
 202 195 l 2
 202 194 202 194 202 193 c 2
 202 0 l 1
 84 0 l 1
 84 759 l 1
 202 759 l 1
 202 495 l 1
 234 524 303 557 359 557 c 0
 418 557 454 530 494 490 c 0
 539 444 539 372 540 310 c 1
 540 20 l 1
EndSplineSet
EndChar

StartChar: i
Encoding: 105 105 10
Width: 285
Flags: MW
HStem: 0 21G<83 202 83 83> 531 20G<83 202 202 202> 657 140<123.5 162>
VStem: 83 119<0 551 0 551>
LayerCount: 2
Fore
SplineSet
202 551 m 1
 202 0 l 1
 83 0 l 1
 83 551 l 1
 202 551 l 1
213 727 m 0
 213 688 181 657 143 657 c 0
 104 657 73 688 73 727 c 0
 73 765 104 797 143 797 c 0
 181 797 213 765 213 727 c 0
EndSplineSet
EndChar

StartChar: j
Encoding: 106 106 11
Width: 320
Flags: MW
HStem: -221 85<40 86 37.5 152> 531 20G<117 236 236 236> 657 140<157.5 196>
VStem: 117 119<118 551>
LayerCount: 2
Fore
SplineSet
59 -221 m 0
 21 -221 -33 -208 -55 -194 c 1
 -17 -123 l 1
 2 -134 32 -136 43 -136 c 0
 129 -136 114 22 117 118 c 1
 117 551 l 1
 236 551 l 1
 236 117 l 2
 236 -31 245 -221 59 -221 c 0
246 727 m 0
 246 688 215 657 177 657 c 0
 138 657 107 688 107 727 c 0
 107 765 138 797 177 797 c 0
 215 797 246 765 246 727 c 0
EndSplineSet
EndChar

StartChar: k
Encoding: 107 107 12
Width: 575
Flags: MW
HStem: 0 21G<84 203 84 84 403 538 403 403> 531 20G<380 513 513 513> 739 20G<84 203 203 203>
VStem: 84 119<0 264 0 288 288 759>
LayerCount: 2
Fore
SplineSet
538 0 m 1
 403 0 l 1
 203 264 l 1
 203 0 l 1
 84 0 l 1
 84 759 l 1
 203 759 l 1
 203 288 l 1
 380 551 l 1
 513 551 l 1
 319 276 l 1
 538 0 l 1
EndSplineSet
EndChar

StartChar: l
Encoding: 108 108 13
Width: 355
Flags: MW
HStem: -5 21G<222 252> 739 20G<82 201 201 201>
VStem: 82 119<174 186 186 759>
LayerCount: 2
Fore
SplineSet
201 168 m 2
 201 81 253 72 313 72 c 1
 313 61 313 0 313 0 c 1
 313 0 272 -5 232 -5 c 0
 212 -5 192 -4 177 -1 c 0
 88 17 82 135 82 174 c 0
 82 181 82 185 82 186 c 2
 82 759 l 1
 201 759 l 1
 201 168 l 2
EndSplineSet
EndChar

StartChar: m
Encoding: 109 109 14
Width: 896
Flags: MW
HStem: 0 21G<84 203 84 84 389 507 389 389 694 812 694 694> 466 91<625.5 663.5> 531 20G<84 190 190 190> 535 20G<319.5 378>
VStem: 84 119<0 420 0 494 0 551> 389 118<0 300 300 310 0 344> 694 118<0 19 19 300 300 310 310 344>
LayerCount: 2
Fore
SplineSet
812 310 m 2xce
 812 19 l 1
 812 0 l 1
 694 0 l 1
 694 300 l 2
 694 388 699 466 628 466 c 0
 616 466 557 462 506 419 c 1
 506 368 507 345 507 310 c 2
 507 0 l 1
 389 0 l 1
 389 300 l 2
 389 388 395 466 323 466 c 0xce
 299 466 235 452 203 420 c 1
 203 0 l 1
 84 0 l 1
 84 551 l 1
 190 551 l 1xae
 203 494 l 1
 235 523 292 555 347 555 c 0x9e
 409 555 446 527 487 474 c 1
 533 524 600 557 651 557 c 0
 740 557 812 480 812 375 c 0
 812 353 812 331 812 310 c 2xce
EndSplineSet
EndChar

StartChar: n
Encoding: 110 110 15
Width: 620
Flags: MW
HStem: 0 21G<84 202 84 84 421 540 421 421> 467 90<331 366.5> 531 20G<84 189 189 189>
VStem: 84 118<0 193 193 195 195 412 412 414 414 420> 421 119<0 20 20 300 300 310>
LayerCount: 2
Fore
SplineSet
540 20 m 1xd8
 540 20 l 1
 540 0 l 1
 421 0 l 1
 421 300 l 2
 421 389 410 467 323 467 c 0xd8
 295 467 223 451 202 420 c 1
 202 414 l 2
 202 413 202 413 202 412 c 2
 202 195 l 2
 202 194 202 194 202 193 c 2
 202 0 l 1
 84 0 l 1
 84 551 l 1
 189 551 l 1xb8
 202 495 l 1
 234 524 303 557 359 557 c 0
 418 557 454 530 494 490 c 0
 539 444 539 372 540 310 c 1
 540 20 l 1xd8
EndSplineSet
EndChar

StartChar: o
Encoding: 111 111 16
Width: 647
Flags: MW
HStem: -5 93<321 359.5 321 398.5> 464 90<287 329 252 365>
VStem: 70 125<226 330.5 226 355.5> 453 124<220.5 324.5>
LayerCount: 2
Fore
SplineSet
329 554 m 1
 481 553 577 430 577 273 c 0
 577 115 474 -5 323 -5 c 0
 168 -5 70 118 70 275 c 0
 70 436 175 554 329 554 c 1
321 88 m 0
 398 88 453 168 453 273 c 0
 453 376 404 464 326 464 c 0
 248 464 195 383 195 278 c 0
 195 174 242 89 321 88 c 0
EndSplineSet
EndChar

StartChar: p
Encoding: 112 112 17
Width: 625
Flags: MW
HStem: -217 21G<84 203 84 84> -5 92<322 360.5 322 434.5> 465 91<318.5 366.5> 531 20G<84 190 190 190>
VStem: 84 111<227 331.5 227 551> 453 124<221.5 301 208.5 325>
LayerCount: 2
Fore
SplineSet
565 384 m 0xec
 573 354 577 319 577 283 c 0
 577 134 508 -5 361 -5 c 0
 283 -5 210 31 203 65 c 1
 203 47 203 -181 203 -217 c 1
 84 -217 l 1
 84 551 l 1
 190 551 l 1xdc
 203 495 l 1
 229 531 287 556 350 556 c 0
 436 556 531 510 565 384 c 0xec
322 87 m 0
 399 87 453 169 453 274 c 0
 453 376 406 465 327 465 c 0xec
 249 465 195 384 195 279 c 0
 195 175 242 88 322 87 c 0
EndSplineSet
EndChar

StartChar: q
Encoding: 113 113 18
Width: 625
Flags: MW
HStem: -225 21G<546 546> -5 93<266.5 305> 465 91<263 308.5 225.5 341> 531 20G<437 543 543 543>
VStem: 49 125<224 328 224 384.5> 424 119<-72 -64 -64 65 12 65 495 495>
LayerCount: 2
Fore
SplineSet
543 -64 m 2xdc
 543 -97 540 -134 579 -160 c 1
 574 -167 546 -225 546 -225 c 1
 470 -214 424 -152 424 -72 c 0
 424 -61 424 -41 424 65 c 1
 417 31 344 -5 266 -5 c 0
 119 -5 49 134 49 283 c 0
 49 486 174 556 277 556 c 0xec
 340 556 398 531 424 495 c 1
 437 551 l 1
 543 551 l 1
 543 -64 l 2xdc
306 88 m 1
 383 89 432 173 432 276 c 0
 432 381 380 465 302 465 c 0
 224 465 174 379 174 277 c 0
 174 171 227 88 306 88 c 1
EndSplineSet
EndChar

StartChar: r
Encoding: 114 114 19
Width: 436
Flags: MW
HStem: 0 21G<84 202 84 84> 440 115<337 340> 531 20G<84 189 189 189>
VStem: 84 118<0 193 193 195 195 404>
LayerCount: 2
Fore
SplineSet
394 555 m 1xd0
 394 432 l 1
 377 437 353 440 327 440 c 0xd0
 281 440 230 430 202 404 c 1
 202 195 l 2
 202 193 202 193 202 193 c 1
 202 0 l 1
 84 0 l 1
 84 551 l 1
 189 551 l 1xb0
 202 494 l 1
 242 534 280 555 394 555 c 1xd0
EndSplineSet
EndChar

StartChar: s
Encoding: 115 115 20
Width: 524
Flags: MW
HStem: -5 91<215 272.5 210 303.5> 464 97<243 289>
VStem: 71 117<361 420.5 346 448.5> 352 102<129.5 182>
LayerCount: 2
Fore
SplineSet
73 44 m 1
 123 123 l 1
 149 105 183 86 237 86 c 0
 308 86 352 108 352 151 c 0
 352 213 245 220 175 256 c 0
 106 292 71 328 71 394 c 0
 71 503 169 561 267 561 c 0
 332 561 384 548 436 516 c 1
 397 435 l 1
 359 457 311 464 267 464 c 0
 219 464 188 444 188 397 c 0
 188 295 454 334 454 160 c 0
 454 48 359 -5 248 -5 c 0
 182 -5 136 0 73 44 c 1
EndSplineSet
EndChar

StartChar: t
Encoding: 116 116 21
Width: 409
Flags: MW
HStem: -5 21G<262 292.5> 471 80<51 123 51 123 241 329> 687 20G<123 241 241 241>
VStem: 123 118<174 471 327.5 471 551 707>
LayerCount: 2
Fore
SplineSet
241 167 m 2
 241 80 294 72 354 72 c 1
 354 61 354 0 354 0 c 1
 354 0 313 -5 272 -5 c 0
 252 -5 232 -4 217 -1 c 0
 129 16 123 135 123 174 c 0
 123 180 123 184 123 471 c 1
 51 471 l 1
 51 551 l 1
 123 551 l 1
 123 707 l 1
 241 707 l 1
 241 551 l 1
 329 551 l 1
 329 471 l 1
 241 471 l 1
 241 167 l 2
EndSplineSet
EndChar

StartChar: u
Encoding: 117 117 22
Width: 619
Flags: MW
HStem: -5 90<253 291> 0 21G<430 536 430 430> 531 20G<80 199>
VStem: 80 119<241 251 251 532 531 532 531 551> 417 119<57 57 131 138 138 139 139 357 357 358 358 551 0 551>
LayerCount: 2
Fore
SplineSet
80 532 m 1xb8
 80 532 80 532 80 531 c 2
 80 551 l 1
 199 551 l 1
 199 251 l 2
 199 161 210 85 296 85 c 0xb8
 323 85 397 99 417 131 c 1
 417 138 l 1
 417 139 l 1
 417 357 l 1
 417 358 l 1
 417 551 l 1
 536 551 l 1
 536 0 l 1
 430 0 l 1x78
 417 57 l 1
 385 28 319 -5 263 -5 c 0
 201 -5 166 21 126 61 c 0
 80 107 80 179 80 241 c 2
 80 532 l 1xb8
EndSplineSet
EndChar

StartChar: v
Encoding: 118 118 23
Width: 656
Flags: MW
HStem: -4 21G<251 404 251 251> 531 20G<58 191 191 191 465 598 598 598>
LayerCount: 2
Fore
SplineSet
404 -4 m 1
 251 -4 l 1
 58 551 l 1
 191 551 l 1
 328 92 l 1
 465 551 l 1
 598 551 l 1
 404 -4 l 1
EndSplineSet
EndChar

StartChar: w
Encoding: 119 119 24
Width: 911
Flags: MW
HStem: -4 21G<212 365 212 212 534 687 534 534> 531 20G<70 197 197 197 391 519 519 519 714 842 842 842>
LayerCount: 2
Fore
SplineSet
714 551 m 1
 842 551 l 1
 687 -4 l 1
 534 -4 l 1
 453 314 l 1
 365 -4 l 1
 212 -4 l 1
 70 551 l 1
 197 551 l 1
 288 92 l 1
 391 551 l 1
 519 551 l 1
 611 92 l 1
 714 551 l 1
EndSplineSet
EndChar

StartChar: x
Encoding: 120 120 25
Width: 665
Flags: MW
HStem: 0 21G<76 212 76 76 453 589 453 453> 531 20G<75 209 209 209 456 590 590 590>
LayerCount: 2
Fore
SplineSet
590 551 m 1
 409 276 l 1
 589 0 l 1
 453 0 l 1
 342 197 l 1
 332 197 l 1
 212 0 l 1
 76 0 l 1
 256 276 l 1
 75 551 l 1
 209 551 l 1
 322 353 l 1
 332 353 l 1
 456 551 l 1
 590 551 l 1
EndSplineSet
EndChar

StartChar: y
Encoding: 121 121 26
Width: 657
Flags: MW
HStem: -246 86<170.5 197 170 258.5> 531 20G<74 192 192 192 496 615 615 615>
LayerCount: 2
Fore
SplineSet
496 551 m 1
 615 551 l 1
 326 -217 334 -246 183 -246 c 0
 158 -246 116 -230 107 -227 c 1
 107 -227 123 -162 127 -150 c 1
 137 -150 165 -160 175 -160 c 0
 219 -160 234 -157 263 -88 c 2
 300 0 l 1
 74 551 l 1
 192 551 l 1
 354 127 l 1
 496 551 l 1
EndSplineSet
EndChar

StartChar: z
Encoding: 122 122 27
Width: 587
Flags: MW
HStem: 0 95<200 503 84 84> 456 95<84 387 84 503 84 503>
LayerCount: 2
Fore
SplineSet
84 551 m 1
 503 551 l 1
 503 456 l 1
 220 110 l 1
 200 95 l 1
 503 95 l 1
 503 0 l 1
 84 0 l 1
 84 95 l 1
 367 440 l 1
 387 456 l 1
 84 456 l 1
 84 551 l 1
EndSplineSet
EndChar

StartChar: b
Encoding: 98 98 28
Width: 626
Flags: MW
HStem: -5 93<322 359.5 321 434.5> 0 21G<84 196 84 84> 465 91<317.5 365> 739 20G<84 202 202 202>
VStem: 84 118<495 759 495 759 495 759> 453 124<221.5 302.5 210 325>
LayerCount: 2
Fore
SplineSet
565 384 m 0x7c
 573 354 577 320 577 285 c 0
 577 135 508 -5 361 -5 c 0xbc
 283 -5 210 31 202 65 c 1
 201 47 197 23 196 0 c 1
 84 0 l 1
 84 759 l 1
 202 759 l 1
 202 495 l 1
 228 531 286 556 349 556 c 0
 435 556 530 510 565 384 c 0x7c
321 88 m 0
 398 88 453 169 453 274 c 0
 453 376 404 465 326 465 c 0
 248 465 195 384 195 279 c 0
 195 175 242 89 321 88 c 0
EndSplineSet
EndChar

StartChar: B
Encoding: 66 66 29
Width: 656
Flags: MW
HStem: 0 86<211 357 357 364> 631 89<211 289 211 221>
VStem: 94 117<86 333 86 412 412 631> 428 110<484 548> 468 112<171 243>
LayerCount: 2
Fore
SplineSet
434 379 m 1xf0
 493 372 580 316 580 208 c 0xe8
 580 10 388 0 364 0 c 2
 94 0 l 1
 94 720 l 1
 135 720 266 720 301 720 c 0
 424 720 538 664 538 524 c 0
 538 444 483 390 434 379 c 1xf0
357 86 m 2
 426 86 468 134 468 208 c 0
 468 278 426 333 349 333 c 0
 346 333 341 333 211 333 c 1
 211 86 l 1
 357 86 l 2
298 412 m 0
 353 412 428 406 428 524 c 0xf0
 428 572 409 631 289 631 c 0
 272 631 231 631 211 631 c 1
 211 412 l 1
 216 412 l 2
 284 412 271 412 298 412 c 0
EndSplineSet
EndChar

StartChar: A
Encoding: 65 65 30
Width: 742
Flags: MW
HStem: 0 21G<62 184 62 62 559 559 559 680> 149 80<264 479 264 507 236 479> 699 20G<313 430 430 430>
LayerCount: 2
Fore
SplineSet
184 0 m 1
 62 0 l 1
 313 719 l 1
 430 719 l 1
 680 0 l 1
 559 0 l 1
 507 149 l 1
 236 149 l 1
 184 0 l 1
372 539 m 1
 264 229 l 1
 479 229 l 1
 372 539 l 1
EndSplineSet
EndChar

StartChar: D
Encoding: 68 68 31
Width: 752
Flags: MW
HStem: 0 86<211 327 327 366 211 225> 631 89<211 279 211 228>
VStem: 94 117<86 86 86 631> 552 123<286.5 442.5>
LayerCount: 2
Fore
SplineSet
675 380 m 0
 675 22 422 0 366 0 c 0
 360 0 356 0 94 0 c 1
 94 720 l 1
 135 720 276 720 311 720 c 0
 554 720 675 550 675 380 c 0
211 86 m 1
 327 86 l 2
 486 86 552 190 552 383 c 0
 552 502 503 631 279 631 c 0
 250 631 245 631 211 631 c 1
 211 86 l 1
EndSplineSet
EndChar

StartChar: P
Encoding: 80 80 32
Width: 591
Flags: MW
HStem: 0 21G<89 206 89 89> 260 86<206 313 206 293> 631 89<206 294 206 206>
VStem: 89 117<0 260 0 346 346 631> 434 113<438 521>
LayerCount: 2
Fore
SplineSet
206 260 m 1
 206 0 l 1
 89 0 l 1
 89 720 l 1
 296 720 l 2
 419 720 547 637 547 497 c 0
 547 350 444 260 293 260 c 2
 206 260 l 1
294 631 m 2
 206 631 l 1
 206 346 l 1
 313 346 l 2
 368 346 434 379 434 497 c 0
 434 545 414 631 294 631 c 2
EndSplineSet
EndChar

StartChar: E
Encoding: 69 69 33
Width: 614
Flags: MW
HStem: 0 89<212 543 212 543> 324 80<212 513 212 513> 631 89<212 543 212 212>
VStem: 93 119<89 324 404 631>
LayerCount: 2
Fore
SplineSet
543 631 m 1
 212 631 l 1
 212 404 l 1
 513 404 l 1
 513 324 l 1
 212 324 l 1
 212 89 l 1
 543 89 l 1
 543 0 l 1
 93 0 l 1
 93 720 l 1
 543 720 l 1
 543 631 l 1
EndSplineSet
EndChar

StartChar: F
Encoding: 70 70 34
Width: 578
Flags: MW
HStem: 0 21G<93 212 93 93> 324 80<212 513 212 513> 631 89<212 543 212 212>
VStem: 93 119<0 324 404 631>
LayerCount: 2
Fore
SplineSet
543 631 m 1
 212 631 l 1
 212 404 l 1
 513 404 l 1
 513 324 l 1
 212 324 l 1
 212 0 l 1
 93 0 l 1
 93 720 l 1
 543 720 l 1
 543 631 l 1
EndSplineSet
EndChar

StartChar: L
Encoding: 76 76 35
Width: 571
Flags: MW
HStem: 0 89<210 541 210 541> 700 20G<91 210 210 210>
VStem: 91 119<89 720 89 720 89 720>
LayerCount: 2
Fore
SplineSet
91 720 m 1
 210 720 l 1
 210 89 l 1
 541 89 l 1
 541 0 l 1
 91 0 l 1
 91 720 l 1
EndSplineSet
EndChar

StartChar: T
Encoding: 84 84 36
Width: 648
Flags: MW
HStem: 0 21G<265 383 265 265> 640 80<50 265 50 598 383 598 383 383>
VStem: 265 118<0 640 0 640>
LayerCount: 2
Fore
SplineSet
598 720 m 1
 598 640 l 1
 383 640 l 1
 383 0 l 1
 265 0 l 1
 265 640 l 1
 50 640 l 1
 50 720 l 1
 598 720 l 1
EndSplineSet
EndChar

StartChar: V
Encoding: 86 86 37
Width: 726
Flags: MW
HStem: -4 21G<282 435 282 282> 700 20G<59 192 192 192 536 669 669 669>
LayerCount: 2
Fore
SplineSet
435 -4 m 1
 282 -4 l 1
 59 720 l 1
 192 720 l 1
 359 99 l 1
 536 720 l 1
 669 720 l 1
 435 -4 l 1
EndSplineSet
EndChar

StartChar: W
Encoding: 87 87 38
Width: 1068
Flags: MW
HStem: -4 21G<254 407 254 254 651 804 651 651> 700 20G<71 204 204 204 468 601 601 601 865 998 998 998>
LayerCount: 2
Fore
SplineSet
865 720 m 1
 998 720 l 1
 804 -4 l 1
 651 -4 l 1
 533 539 l 1
 407 -4 l 1
 254 -4 l 1
 71 720 l 1
 204 720 l 1
 331 99 l 1
 468 720 l 1
 601 720 l 1
 728 99 l 1
 865 720 l 1
EndSplineSet
EndChar

StartChar: X
Encoding: 88 88 39
Width: 686
Flags: MW
HStem: 0 21G<84 220 84 84 467 603 467 467> 700 20G<72 206 206 206 480 614 614 614>
LayerCount: 2
Fore
SplineSet
614 720 m 1
 420 350 l 1
 603 0 l 1
 467 0 l 1
 353 271 l 1
 343 271 l 1
 220 0 l 1
 84 0 l 1
 267 350 l 1
 72 720 l 1
 206 720 l 1
 333 427 l 1
 343 427 l 1
 480 720 l 1
 614 720 l 1
EndSplineSet
EndChar

StartChar: Y
Encoding: 89 89 40
Width: 640
Flags: MW
HStem: 0 21G<256 375 256 256> 700 20G<53 187 187 187 455 589 589 589>
VStem: 256 119<0 283 283 283>
LayerCount: 2
Fore
SplineSet
589 720 m 1
 375 293 l 1
 375 0 l 1
 256 0 l 1
 256 283 l 1
 53 720 l 1
 187 720 l 1
 311 397 l 1
 321 397 l 1
 455 720 l 1
 589 720 l 1
EndSplineSet
EndChar

StartChar: U
Encoding: 85 85 43
Width: 720
Flags: MW
HStem: -5 96<309.5 406.5 309.5 445> 700 20G<80 199 199 199 521 640 640 640>
VStem: 80 119<363 375 375 720> 521 119<375 720>
LayerCount: 2
Fore
SplineSet
521 720 m 1
 640 720 l 1
 640 363 l 2
 640 120 530 -5 360 -5 c 0
 190 -5 80 120 80 363 c 2
 80 720 l 1
 199 720 l 1
 199 375 l 2
 199 161 262 91 357 91 c 0
 456 91 521 155 521 375 c 2
 521 720 l 1
EndSplineSet
EndChar

StartChar: O
Encoding: 79 79 44
Width: 750
Flags: MW
HStem: -5 96<325.5 420.5 325.5 460> 635 96<329.5 424.5>
VStem: 75 119<363 363> 556 119<363 363>
LayerCount: 2
Fore
SplineSet
675 363 m 0
 675 120 545 -5 375 -5 c 0
 205 -5 75 120 75 363 c 0
 75 606 205 731 375 731 c 0
 545 731 675 606 675 363 c 0
372 91 m 0
 469 91 554 162 556 363 c 1
 554 558 471 635 378 635 c 0
 281 635 196 564 194 363 c 1
 196 168 279 91 372 91 c 0
EndSplineSet
EndChar

StartChar: zero
Encoding: 48 48 45
Width: 696
Flags: MW
HStem: -5 96<330.5 393.5 330.5 433> 635 96<302.5 364.5>
VStem: 72 119<363 363> 505 119<363 363>
LayerCount: 2
Fore
SplineSet
348 731 m 0
 518 731 624 606 624 363 c 0
 624 120 518 -5 348 -5 c 0
 178 -5 72 120 72 363 c 0
 72 606 178 731 348 731 c 0
351 635 m 0
 254 635 193 564 191 363 c 1
 192 283 202 223 220 180 c 1
 423 614 l 1
 402 628 378 635 351 635 c 0
345 91 m 0
 442 91 503 162 505 363 c 1
 504 446 493 508 473 551 c 1
 269 115 l 1
 290 98 316 91 345 91 c 0
EndSplineSet
EndChar

StartChar: Z
Encoding: 90 90 46
Width: 630
Flags: MW
HStem: 0 95<192 555 76 76> 625 95<76 439 76 555 76 555>
LayerCount: 2
Fore
SplineSet
76 720 m 1
 555 720 l 1
 555 625 l 1
 212 110 l 1
 192 95 l 1
 555 95 l 1
 555 0 l 1
 76 0 l 1
 76 95 l 1
 419 609 l 1
 439 625 l 1
 76 625 l 1
 76 720 l 1
EndSplineSet
EndChar

StartChar: C
Encoding: 67 67 47
Width: 656
Flags: MW
HStem: -5 96<327.5 397 327.5 416> 635 96<331.5 401.5>
VStem: 77 119<363 363>
LayerCount: 2
Fore
SplineSet
496 145 m 1
 577 73 l 1
 524 21 455 -5 377 -5 c 0
 207 -5 77 120 77 363 c 0
 77 606 207 731 377 731 c 0
 455 731 524 705 577 653 c 1
 496 581 l 1
 464 618 423 635 380 635 c 0
 283 635 198 564 196 363 c 1
 198 168 281 91 374 91 c 0
 420 91 463 107 496 145 c 1
EndSplineSet
EndChar

StartChar: G
Encoding: 71 71 48
Width: 694
Flags: MW
HStem: -5 86<327.5 389 327.5 420> 291 80<376 498 376 614> 635 96<331.5 401.5>
VStem: 77 119<363 363> 376 238<291 371 93 371> 498 116<113 291 291 291>
LayerCount: 2
Fore
SplineSet
376 371 m 1xf8
 614 371 l 1
 614 93 l 1
 555 19 463 -5 377 -5 c 0
 207 -5 77 120 77 363 c 0
 77 606 207 731 377 731 c 0
 455 731 524 705 577 653 c 1
 496 581 l 1
 465 618 423 635 380 635 c 0
 283 635 198 564 196 363 c 1
 198 168 281 81 374 81 c 0
 404 81 476 87 498 113 c 1
 498 291 l 1xf4
 376 291 l 1
 376 371 l 1xf8
EndSplineSet
EndChar

StartChar: K
Encoding: 75 75 49
Width: 653
Flags: MW
HStem: 0 21G<91 210 91 91 442 578 442 442> 700 20G<91 210 210 210 425 559 559 559>
VStem: 91 119<0 342 0 359 359 720>
LayerCount: 2
Fore
SplineSet
559 720 m 1
 328 350 l 1
 578 0 l 1
 442 0 l 1
 210 342 l 1
 210 0 l 1
 91 0 l 1
 91 720 l 1
 210 720 l 1
 210 359 l 1
 425 720 l 1
 559 720 l 1
EndSplineSet
EndChar

StartChar: R
Encoding: 82 82 50
Width: 645
Flags: MW
HStem: 0 21G<88 205 88 88 452 576 452 452> 260 86<205 253.5> 631 89<205 205 205 293>
VStem: 88 117<0 260 0 346 346 631> 433 113<445.5 521>
LayerCount: 2
Fore
SplineSet
576 0 m 1
 452 0 l 1
 316 261 l 1
 307 260 302 260 205 260 c 1
 205 0 l 1
 88 0 l 1
 88 720 l 1
 295 720 l 2
 418 720 546 637 546 497 c 0
 546 394 494 319 412 283 c 1
 576 0 l 1
205 631 m 1
 205 346 l 1
 312 346 l 2
 367 346 433 379 433 497 c 0
 433 545 413 631 293 631 c 2
 205 631 l 1
EndSplineSet
EndChar

StartChar: S
Encoding: 83 83 51
Width: 530
Flags: MW
HStem: -4 93<239 305 239 338> 711 20G<244 331.5>
VStem: 84 111<456 556 456 593.5> 388 109<163.5 266>
LayerCount: 2
Fore
SplineSet
497 197 m 0
 497 92 410 -4 266 -4 c 0
 206 -4 125 8 79 48 c 1
 100 132 l 1
 138 111 213 89 265 89 c 0
 345 89 388 128 388 199 c 0
 388 333 84 321 84 530 c 0
 84 657 186 731 302 731 c 0
 361 731 429 721 467 696 c 1
 450 661 423 611 421 608 c 1
 406 615 387 641 293 632 c 0
 241 627 195 578 195 534 c 0
 195 378 497 429 497 197 c 0
EndSplineSet
EndChar

StartChar: Q
Encoding: 81 81 52
Width: 732
Flags: MW
HStem: -165 21G<447 576 447 447> -3 21G<324 353 324 324> 635 96<316.5 411.5>
VStem: 62 119<363 363> 543 119<363 363>
LayerCount: 2
Fore
SplineSet
662 363 m 0
 662 167 561 34 441 9 c 1
 576 -165 l 1
 447 -165 l 1
 353 -3 l 1
 324 -3 l 1
 173 15 62 138 62 363 c 0
 62 606 192 731 362 731 c 0
 532 731 662 606 662 363 c 0
181 363 m 1
 183 168 266 91 359 91 c 0
 456 91 541 162 543 363 c 1
 541 558 458 635 365 635 c 0
 268 635 183 564 181 363 c 1
EndSplineSet
EndChar

StartChar: J
Encoding: 74 74 53
Width: 552
Flags: MW
HStem: -5 101<214 265.5 204 300> 714 20G<347 466 466 466>
VStem: 347 119<184 734>
LayerCount: 2
Fore
SplineSet
347 734 m 1
 466 734 l 1
 466 174 l 2
 466 37 358 -5 242 -5 c 0
 186 -5 78 21 25 61 c 1
 75 140 l 1
 101 122 177 96 231 96 c 0
 300 96 345 121 347 184 c 1
 347 734 l 1
EndSplineSet
EndChar

StartChar: M
Encoding: 77 77 54
Width: 845
Flags: MW
HStem: 0 21G<90 209 90 90 636 755 636 636> 700 20G<90 209 209 209 636 755 755 755>
VStem: 90 119<0 495 0 720> 636 119<0 495 495 495 0 720>
LayerCount: 2
Fore
SplineSet
636 720 m 1
 755 720 l 1
 755 0 l 1
 636 0 l 1
 636 495 l 1
 475 95 l 1
 371 95 l 1
 209 495 l 1
 209 0 l 1
 90 0 l 1
 90 720 l 1
 209 720 l 1
 423 228 l 1
 636 720 l 1
EndSplineSet
EndChar

StartChar: N
Encoding: 78 78 55
Width: 700
Flags: MW
HStem: 0 21G<90 209 90 90 491 610 491 491> 700 20G<90 209 209 209 491 610 610 610>
VStem: 90 119<0 496 0 720> 491 119<0 720 224 720 0 720>
LayerCount: 2
Fore
SplineSet
491 720 m 1
 610 720 l 1
 610 0 l 1
 491 0 l 1
 209 496 l 1
 209 0 l 1
 90 0 l 1
 90 720 l 1
 209 720 l 1
 491 224 l 1
 491 720 l 1
EndSplineSet
EndChar

StartChar: one
Encoding: 49 49 56
Width: 413
Flags: MW
HStem: 0 21G<211 330 211 211> 700 20G<211 330 330 330>
VStem: 211 119<0 552 552 552>
LayerCount: 2
Fore
SplineSet
330 0 m 1
 211 0 l 1
 211 552 l 1
 112 453 l 1
 28 537 l 1
 211 720 l 1
 330 720 l 1
 330 0 l 1
EndSplineSet
EndChar

StartChar: two
Encoding: 50 50 57
Width: 600
Flags: MW
HStem: 0 95<227 532 227 532> 626 99<250 308.5>
VStem: 407 114<439.5 550.5>
LayerCount: 2
Fore
SplineSet
521 506 m 0
 521 353 300 168 227 95 c 1
 532 95 l 1
 532 0 l 1
 85 0 l 1
 85 109 l 1
 158 175 407 374 407 505 c 0
 407 596 335 626 282 626 c 0
 182 626 156 614 111 587 c 1
 77 659 l 1
 125 702 220 725 280 725 c 0
 449 725 521 603 521 506 c 0
EndSplineSet
EndChar

StartChar: acute
Encoding: 180 180 58
Width: 219
Flags: MW
HStem: 620 21G<23 102 23 23> 739 20G<89 208 208 208>
LayerCount: 2
Fore
SplineSet
208 759 m 1
 102 620 l 1
 23 620 l 1
 89 759 l 1
 208 759 l 1
EndSplineSet
EndChar

StartChar: grave
Encoding: 96 96 59
Width: 219
Flags: MW
HStem: 620 21G<129 129 129 208> 739 20G<23 142 142 142>
LayerCount: 2
Fore
SplineSet
129 620 m 1
 23 759 l 1
 142 759 l 1
 208 620 l 1
 129 620 l 1
EndSplineSet
EndChar

StartChar: eacute
Encoding: 233 233 61
Width: 649
Flags: MW
HStem: -4 96<293 350.5 293 367.5> 235 86<188 458 188 567 185 458> 465 92<286.5 327> 739 20G<298 417 417 417>
VStem: 70 115<199 235 193.5 354>
LayerCount: 2
Fore
SplineSet
314 557 m 0
 489 557 590 402 567 235 c 1
 185 235 l 1
 185 152 250 92 336 92 c 0
 365 92 428 105 465 143 c 1
 508 77 l 1
 465 24 412 -4 323 -4 c 0
 179 -4 70 122 70 276 c 0
 70 432 181 557 314 557 c 0
188 321 m 1
 458 321 l 1
 458 391 403 463 327 465 c 1
 246 465 188 397 188 321 c 1
417 759 m 1
 311 620 l 1
 232 620 l 1
 298 759 l 1
 417 759 l 1
EndSplineSet
EndChar

StartChar: agrave
Encoding: 224 224 62
Width: 586
Flags: MW
HStem: -5 21G<192.5 267> -1 21G<465.5 483> 474 81<257.5 306> 739 20G<200 319 319 319>
VStem: 69 111<133.5 208 133.5 222.5> 365 118
LayerCount: 2
Fore
SplineSet
483 298 m 2xbc
 483 171 l 1
 483 171 483 168 483 163 c 0
 483 141 485 75 515 64 c 1
 483 -1 l 1x7c
 448 -1 404 34 393 74 c 1
 374 30 297 -5 237 -5 c 0
 148 -5 69 39 69 163 c 0
 69 282 179 336 282 336 c 2
 365 336 l 1
 365 465 338 474 274 474 c 0
 219 474 169 440 152 426 c 1
 108 493 l 1
 136 522 215 555 300 555 c 0
 378 555 453 527 472 436 c 0
 481 391 483 343 483 298 c 2xbc
366 132 m 1
 366 132 366 234 366 267 c 1
 304 267 l 2
 252 267 180 250 180 166 c 0
 180 101 210 74 266 74 c 0
 305 74 344 96 366 132 c 1
306 620 m 1
 200 759 l 1
 319 759 l 1
 385 620 l 1
 306 620 l 1
EndSplineSet
EndChar

StartChar: aacute
Encoding: 225 225 63
Width: 586
Flags: MW
HStem: -5 21G<192.5 267> -1 21G<465.5 483> 474 81<257.5 306> 739 20G<266 385 385 385>
VStem: 69 111<133.5 208 133.5 222.5> 365 118
LayerCount: 2
Fore
SplineSet
483 298 m 2xbc
 483 171 l 1
 483 171 483 168 483 163 c 0
 483 141 485 75 515 64 c 1
 483 -1 l 1x7c
 448 -1 404 34 393 74 c 1
 374 30 297 -5 237 -5 c 0
 148 -5 69 39 69 163 c 0
 69 282 179 336 282 336 c 2
 365 336 l 1
 365 465 338 474 274 474 c 0
 219 474 169 440 152 426 c 1
 108 493 l 1
 136 522 215 555 300 555 c 0
 378 555 453 527 472 436 c 0
 481 391 483 343 483 298 c 2xbc
366 132 m 1
 366 132 366 234 366 267 c 1
 304 267 l 2
 252 267 180 250 180 166 c 0
 180 101 210 74 266 74 c 0
 305 74 344 96 366 132 c 1
385 759 m 1
 279 620 l 1
 200 620 l 1
 266 759 l 1
 385 759 l 1
EndSplineSet
EndChar

StartChar: Eacute
Encoding: 201 201 66
Width: 614
Flags: MW
HStem: 0 89<212 543 212 543> 324 80<212 513 212 513> 631 89<212 543 212 212> 908 20G<280 399 399 399>
VStem: 93 119<89 324 404 631>
LayerCount: 2
Fore
SplineSet
543 631 m 1
 212 631 l 1
 212 404 l 1
 513 404 l 1
 513 324 l 1
 212 324 l 1
 212 89 l 1
 543 89 l 1
 543 0 l 1
 93 0 l 1
 93 720 l 1
 543 720 l 1
 543 631 l 1
399 928 m 1
 293 789 l 1
 214 789 l 1
 280 928 l 1
 399 928 l 1
EndSplineSet
EndChar

StartChar: Agrave
Encoding: 192 192 67
Width: 742
Flags: MW
HStem: 0 21G<62 184 62 62 559 559 559 680> 149 80<264 479 264 507 236 479> 908 20G<278 397 397 397>
LayerCount: 2
Fore
SplineSet
184 0 m 1
 62 0 l 1
 313 719 l 1
 430 719 l 1
 680 0 l 1
 559 0 l 1
 507 149 l 1
 236 149 l 1
 184 0 l 1
372 539 m 1
 264 229 l 1
 479 229 l 1
 372 539 l 1
384 789 m 1
 278 928 l 1
 397 928 l 1
 463 789 l 1
 384 789 l 1
EndSplineSet
EndChar

StartChar: Aacute
Encoding: 193 193 68
Width: 742
Flags: MW
HStem: 0 21G<62 184 62 62 559 559 559 680> 149 80<264 479 264 507 236 479> 908 20G<344 463 463 463>
LayerCount: 2
Fore
SplineSet
184 0 m 1
 62 0 l 1
 313 719 l 1
 430 719 l 1
 680 0 l 1
 559 0 l 1
 507 149 l 1
 236 149 l 1
 184 0 l 1
372 539 m 1
 264 229 l 1
 479 229 l 1
 372 539 l 1
463 928 m 1
 357 789 l 1
 278 789 l 1
 344 928 l 1
 463 928 l 1
EndSplineSet
EndChar

StartChar: period
Encoding: 46 46 69
Width: 203
Flags: MW
HStem: -4 140<82.5 121>
VStem: 32 140<46.5 85>
LayerCount: 2
Fore
SplineSet
172 66 m 0
 172 27 140 -4 102 -4 c 0
 63 -4 32 27 32 66 c 0
 32 104 63 136 102 136 c 0
 140 136 172 104 172 66 c 0
EndSplineSet
EndChar

StartChar: Iacute
Encoding: 205 205 71
Width: 301
Flags: MW
HStem: 0 21G<92 211 211 211> 700 20G<92 211 92 92> 908 20G<124 243 243 243>
VStem: 92 119<0 720 0 720>
LayerCount: 2
Fore
SplineSet
211 0 m 1
 211 720 l 1
 92 720 l 1
 92 0 l 1
 211 0 l 1
243 928 m 1
 137 789 l 1
 58 789 l 1
 124 928 l 1
 243 928 l 1
EndSplineSet
EndChar

StartChar: ograve
Encoding: 242 242 72
Width: 647
Flags: MW
HStem: -5 93<321 359.5 321 398.5> 464 90<287 329 252 365> 739 20G<231 350 350 350>
VStem: 70 125<226 330.5 226 355.5> 453 124<220.5 324.5>
LayerCount: 2
Fore
SplineSet
329 554 m 1
 481 553 577 430 577 273 c 0
 577 115 474 -5 323 -5 c 0
 168 -5 70 118 70 275 c 0
 70 436 175 554 329 554 c 1
321 88 m 0
 398 88 453 168 453 273 c 0
 453 376 404 464 326 464 c 0
 248 464 195 383 195 278 c 0
 195 174 242 89 321 88 c 0
337 620 m 1
 231 759 l 1
 350 759 l 1
 416 620 l 1
 337 620 l 1
EndSplineSet
EndChar

StartChar: oacute
Encoding: 243 243 73
Width: 647
Flags: MW
HStem: -5 93<321 359.5 321 398.5> 464 90<287 329 252 365> 739 20G<297 416 416 416>
VStem: 70 125<226 330.5 226 355.5> 453 124<220.5 324.5>
LayerCount: 2
Fore
SplineSet
329 554 m 1
 481 553 577 430 577 273 c 0
 577 115 474 -5 323 -5 c 0
 168 -5 70 118 70 275 c 0
 70 436 175 554 329 554 c 1
321 88 m 0
 398 88 453 168 453 273 c 0
 453 376 404 464 326 464 c 0
 248 464 195 383 195 278 c 0
 195 174 242 89 321 88 c 0
416 759 m 1
 310 620 l 1
 231 620 l 1
 297 759 l 1
 416 759 l 1
EndSplineSet
EndChar

StartChar: dieresis
Encoding: 168 168 74
Width: 526
Flags: MW
HStem: 624 140<68.5 107 358.5 397>
VStem: 18 140<674.5 713> 308 140<674.5 713>
LayerCount: 2
Fore
SplineSet
448 694 m 0
 448 655 416 624 378 624 c 0
 339 624 308 655 308 694 c 0
 308 732 339 764 378 764 c 0
 416 764 448 732 448 694 c 0
158 694 m 0
 158 655 126 624 88 624 c 0
 49 624 18 655 18 694 c 0
 18 732 49 764 88 764 c 0
 126 764 158 732 158 694 c 0
EndSplineSet
EndChar

StartChar: odieresis
Encoding: 246 246 76
Width: 647
Flags: MW
HStem: -5 93<321 359.5 321 398.5> 464 90<287 329 252 365> 624 140<168.5 207 458.5 497>
VStem: 70 125<226 330.5 226 355.5> 118 140<674.5 713> 408 140<674.5 713> 453 124<220.5 324.5>
LayerCount: 2
Fore
SplineSet
329 554 m 1xf2
 481 553 577 430 577 273 c 0
 577 115 474 -5 323 -5 c 0
 168 -5 70 118 70 275 c 0
 70 436 175 554 329 554 c 1xf2
321 88 m 0
 398 88 453 168 453 273 c 0
 453 376 404 464 326 464 c 0
 248 464 195 383 195 278 c 0
 195 174 242 89 321 88 c 0
548 694 m 0xec
 548 655 516 624 478 624 c 0
 439 624 408 655 408 694 c 0
 408 732 439 764 478 764 c 0
 516 764 548 732 548 694 c 0xec
258 694 m 0
 258 655 226 624 188 624 c 0
 149 624 118 655 118 694 c 0
 118 732 149 764 188 764 c 0
 226 764 258 732 258 694 c 0
EndSplineSet
EndChar

StartChar: udieresis
Encoding: 252 252 78
Width: 619
Flags: MW
HStem: -5 90<253 291> 0 21G<430 536 430 430> 531 20G<80 199> 624 140<154.5 193 444.5 483>
VStem: 80 119<241 251 251 532 531 532 531 551> 104 140<674.5 713> 394 142<0 713> 417 119<57 57 131 138 138 139 139 357 357 358 358 551 0 551>
LayerCount: 2
Fore
SplineSet
80 532 m 1xb9
 80 532 80 532 80 531 c 2
 80 551 l 1
 199 551 l 1
 199 251 l 2
 199 161 210 85 296 85 c 0
 323 85 397 99 417 131 c 1
 417 138 l 1
 417 139 l 1
 417 357 l 1
 417 358 l 1
 417 551 l 1xb9
 536 551 l 1
 536 0 l 1
 430 0 l 1x7a
 417 57 l 1
 385 28 319 -5 263 -5 c 0
 201 -5 166 21 126 61 c 0
 80 107 80 179 80 241 c 2
 80 532 l 1xb9
534 694 m 0
 534 655 502 624 464 624 c 0
 425 624 394 655 394 694 c 0xb6
 394 732 425 764 464 764 c 0
 502 764 534 732 534 694 c 0
244 694 m 0
 244 655 212 624 174 624 c 0
 135 624 104 655 104 694 c 0
 104 732 135 764 174 764 c 0
 212 764 244 732 244 694 c 0
EndSplineSet
EndChar

StartChar: Idieresis
Encoding: 207 207 80
Width: 301
Flags: MW
HStem: 0 21G<92 211 92 92> 700 20G<92 211 211 211> 793 140<-3.5 35 286.5 325>
VStem: -54 140<843.5 882> 92 119<0 720 0 720> 236 140<843.5 882>
LayerCount: 2
Fore
SplineSet
211 720 m 1
 211 0 l 1
 92 0 l 1
 92 720 l 1
 211 720 l 1
376 863 m 0
 376 824 344 793 306 793 c 0
 267 793 236 824 236 863 c 0
 236 901 267 933 306 933 c 0
 344 933 376 901 376 863 c 0
86 863 m 0
 86 824 54 793 16 793 c 0
 -23 793 -54 824 -54 863 c 0
 -54 901 -23 933 16 933 c 0
 54 933 86 901 86 863 c 0
EndSplineSet
EndChar

StartChar: Adieresis
Encoding: 196 196 82
Width: 742
Flags: MW
HStem: 0 21G<62 184 62 62 559 559 559 680> 149 80<264 479 264 507 236 479> 793 140<216.5 255 506.5 545>
VStem: 166 140<843.5 882> 456 140<843.5 882>
LayerCount: 2
Fore
SplineSet
184 0 m 1
 62 0 l 1
 313 719 l 1
 430 719 l 1
 680 0 l 1
 559 0 l 1
 507 149 l 1
 236 149 l 1
 184 0 l 1
372 539 m 1
 264 229 l 1
 479 229 l 1
 372 539 l 1
596 863 m 0
 596 824 564 793 526 793 c 0
 487 793 456 824 456 863 c 0
 456 901 487 933 526 933 c 0
 564 933 596 901 596 863 c 0
306 863 m 0
 306 824 274 793 236 793 c 0
 197 793 166 824 166 863 c 0
 166 901 197 933 236 933 c 0
 274 933 306 901 306 863 c 0
EndSplineSet
EndChar

StartChar: dotlessi
Encoding: 305 305 83
Width: 285
Flags: MW
HStem: 0 21G<83 202 83 83> 531 20G<83 202 202 202>
VStem: 83 119<0 551 0 551>
LayerCount: 2
Fore
SplineSet
202 551 m 1
 202 0 l 1
 83 0 l 1
 83 551 l 1
 202 551 l 1
EndSplineSet
EndChar

StartChar: iacute
Encoding: 237 237 85
Width: 285
Flags: MW
HStem: 0 21G<83 202 83 83> 531 20G<83 202 202 202> 739 20G<116 235 235 235>
VStem: 83 119<0 551 0 551>
LayerCount: 2
Fore
SplineSet
202 551 m 1
 202 0 l 1
 83 0 l 1
 83 551 l 1
 202 551 l 1
235 759 m 1
 129 620 l 1
 50 620 l 1
 116 759 l 1
 235 759 l 1
EndSplineSet
EndChar

StartChar: circumflex
Encoding: 710 710 87
Width: 347
Flags: MW
HStem: 620 21G<23 131 23 23 216 324 216 216> 739 20G<129 218 218 218>
LayerCount: 2
Fore
SplineSet
324 620 m 1
 216 620 l 1
 173 697 l 1
 131 620 l 1
 23 620 l 1
 129 759 l 1
 218 759 l 1
 324 620 l 1
EndSplineSet
EndChar

StartChar: caron
Encoding: 711 711 88
Width: 345
Flags: MW
HStem: 620 139<128 130 215 217 128 128>
LayerCount: 2
Fore
SplineSet
22 759 m 1
 130 759 l 1
 172 682 l 1
 215 759 l 1
 323 759 l 1
 217 620 l 1
 128 620 l 1
 22 759 l 1
EndSplineSet
EndChar

StartChar: ocircumflex
Encoding: 244 244 90
Width: 647
Flags: MW
HStem: -5 93<321 359.5 321 398.5> 464 90<287 329 252 365> 739 20G<279 368 368 368>
VStem: 70 125<226 330.5 226 355.5> 453 124<220.5 324.5>
LayerCount: 2
Fore
SplineSet
329 554 m 1
 481 553 577 430 577 273 c 0
 577 115 474 -5 323 -5 c 0
 168 -5 70 118 70 275 c 0
 70 436 175 554 329 554 c 1
321 88 m 0
 398 88 453 168 453 273 c 0
 453 376 404 464 326 464 c 0
 248 464 195 383 195 278 c 0
 195 174 242 89 321 88 c 0
474 620 m 1
 366 620 l 1
 323 697 l 1
 281 620 l 1
 173 620 l 1
 279 759 l 1
 368 759 l 1
 474 620 l 1
EndSplineSet
EndChar

StartChar: Ocircumflex
Encoding: 212 212 92
Width: 750
Flags: MW
HStem: -5 96<325.5 420.5 325.5 460> 635 96<329.5 424.5> 908 20G<330 419 419 419>
VStem: 75 119<363 363> 556 119<363 363>
LayerCount: 2
Fore
SplineSet
675 363 m 0
 675 120 545 -5 375 -5 c 0
 205 -5 75 120 75 363 c 0
 75 606 205 731 375 731 c 0
 545 731 675 606 675 363 c 0
372 91 m 0
 469 91 554 162 556 363 c 1
 554 558 471 635 378 635 c 0
 281 635 196 564 194 363 c 1
 196 168 279 91 372 91 c 0
525 789 m 1
 417 789 l 1
 374 866 l 1
 332 789 l 1
 224 789 l 1
 330 928 l 1
 419 928 l 1
 525 789 l 1
EndSplineSet
EndChar

StartChar: Ograve
Encoding: 210 210 94
Width: 750
Flags: MW
HStem: -5 96<325.5 420.5 325.5 460> 635 96<329.5 424.5> 908 20G<282 401 401 401>
VStem: 75 119<363 363> 556 119<363 363>
LayerCount: 2
Fore
SplineSet
675 363 m 0
 675 120 545 -5 375 -5 c 0
 205 -5 75 120 75 363 c 0
 75 606 205 731 375 731 c 0
 545 731 675 606 675 363 c 0
372 91 m 0
 469 91 554 162 556 363 c 1
 554 558 471 635 378 635 c 0
 281 635 196 564 194 363 c 1
 196 168 279 91 372 91 c 0
388 789 m 1
 282 928 l 1
 401 928 l 1
 467 789 l 1
 388 789 l 1
EndSplineSet
EndChar

StartChar: Ecircumflex
Encoding: 202 202 96
Width: 614
Flags: MW
HStem: 0 89<212 543 212 543> 324 80<212 513 212 513> 631 89<212 543 212 212> 908 20G<262 351 351 351>
VStem: 93 119<89 324 404 631>
LayerCount: 2
Fore
SplineSet
543 631 m 1
 212 631 l 1
 212 404 l 1
 513 404 l 1
 513 324 l 1
 212 324 l 1
 212 89 l 1
 543 89 l 1
 543 0 l 1
 93 0 l 1
 93 720 l 1
 543 720 l 1
 543 631 l 1
457 789 m 1
 349 789 l 1
 306 866 l 1
 264 789 l 1
 156 789 l 1
 262 928 l 1
 351 928 l 1
 457 789 l 1
EndSplineSet
EndChar

StartChar: acircumflex
Encoding: 226 226 98
Width: 586
Flags: MW
HStem: -5 21G<192.5 267> -1 21G<465.5 483> 474 81<257.5 306> 739 20G<248 337 337 337>
VStem: 69 111<133.5 208 133.5 222.5> 365 118
LayerCount: 2
Fore
SplineSet
483 298 m 2xbc
 483 171 l 1
 483 171 483 168 483 163 c 0
 483 141 485 75 515 64 c 1
 483 -1 l 1x7c
 448 -1 404 34 393 74 c 1
 374 30 297 -5 237 -5 c 0
 148 -5 69 39 69 163 c 0
 69 282 179 336 282 336 c 2
 365 336 l 1
 365 465 338 474 274 474 c 0
 219 474 169 440 152 426 c 1
 108 493 l 1
 136 522 215 555 300 555 c 0
 378 555 453 527 472 436 c 0
 481 391 483 343 483 298 c 2xbc
366 132 m 1
 366 132 366 234 366 267 c 1
 304 267 l 2
 252 267 180 250 180 166 c 0
 180 101 210 74 266 74 c 0
 305 74 344 96 366 132 c 1
443 620 m 1
 335 620 l 1
 292 697 l 1
 250 620 l 1
 142 620 l 1
 248 759 l 1
 337 759 l 1
 443 620 l 1
EndSplineSet
EndChar

StartChar: Ucircumflex
Encoding: 219 219 102
Width: 720
Flags: MW
HStem: -5 96<309.5 406.5 309.5 445> 700 20G<80 199 199 199 521 640 640 640> 908 20G<315 404 404 404>
VStem: 80 119<363 375 375 720> 521 119<375 720>
LayerCount: 2
Fore
SplineSet
521 720 m 1
 640 720 l 1
 640 363 l 2
 640 120 530 -5 360 -5 c 0
 190 -5 80 120 80 363 c 2
 80 720 l 1
 199 720 l 1
 199 375 l 2
 199 161 262 91 357 91 c 0
 456 91 521 155 521 375 c 2
 521 720 l 1
510 789 m 1
 402 789 l 1
 359 866 l 1
 317 789 l 1
 209 789 l 1
 315 928 l 1
 404 928 l 1
 510 789 l 1
EndSplineSet
EndChar

StartChar: Ugrave
Encoding: 217 217 104
Width: 720
Flags: MW
HStem: -5 96<309.5 406.5 309.5 445> 700 20G<80 199 199 199 521 640 640 640> 908 20G<267 386 386 386>
VStem: 80 119<363 375 375 720> 521 119<375 720>
LayerCount: 2
Fore
SplineSet
521 720 m 1
 640 720 l 1
 640 363 l 2
 640 120 530 -5 360 -5 c 0
 190 -5 80 120 80 363 c 2
 80 720 l 1
 199 720 l 1
 199 375 l 2
 199 161 262 91 357 91 c 0
 456 91 521 155 521 375 c 2
 521 720 l 1
373 789 m 1
 267 928 l 1
 386 928 l 1
 452 789 l 1
 373 789 l 1
EndSplineSet
EndChar

StartChar: uacute
Encoding: 250 250 106
Width: 619
Flags: MW
HStem: -5 90<253 291> 0 21G<430 536 430 430> 531 20G<80 199> 739 20G<283 402 402 402>
VStem: 80 119<241 251 251 532 531 532 531 551> 417 119<57 57 131 138 138 139 139 357 357 358 358 551 0 551>
LayerCount: 2
Fore
SplineSet
80 532 m 1xbc
 80 532 80 532 80 531 c 2
 80 551 l 1
 199 551 l 1
 199 251 l 2
 199 161 210 85 296 85 c 0xbc
 323 85 397 99 417 131 c 1
 417 138 l 1
 417 139 l 1
 417 357 l 1
 417 358 l 1
 417 551 l 1
 536 551 l 1
 536 0 l 1
 430 0 l 1x7c
 417 57 l 1
 385 28 319 -5 263 -5 c 0
 201 -5 166 21 126 61 c 0
 80 107 80 179 80 241 c 2
 80 532 l 1xbc
402 759 m 1
 296 620 l 1
 217 620 l 1
 283 759 l 1
 402 759 l 1
EndSplineSet
EndChar

StartChar: tilde
Encoding: 732 732 108
Width: 397
Flags: MW
HStem: 628 21G<89 89> 645 99<114 291> 732 20G<311 311>
LayerCount: 2
Fore
SplineSet
89 628 m 1xa0
 29 654 l 1
 48 699 88 744 140 744 c 0x40
 189 744 232 711 265 711 c 0
 288 711 300 719 311 752 c 1xa0
 374 733 l 1
 358 676 317 645 265 645 c 0x40
 219 645 182 678 140 678 c 0
 119 678 101 653 89 628 c 1xa0
EndSplineSet
EndChar

StartChar: Ntilde
Encoding: 209 209 110
Width: 700
Flags: MW
HStem: 0 21G<90 209 90 90 491 610 491 491> 700 20G<90 209 209 209 491 610 610 610> 814 99<262 439> 901 20G<459 459>
VStem: 90 119<0 496 0 720> 491 119<0 720 224 720 0 720>
LayerCount: 2
Fore
SplineSet
491 720 m 1xec
 610 720 l 1
 610 0 l 1
 491 0 l 1
 209 496 l 1
 209 0 l 1
 90 0 l 1
 90 720 l 1
 209 720 l 1
 491 224 l 1
 491 720 l 1xec
237 797 m 1
 177 823 l 1
 196 868 236 913 288 913 c 0xec
 337 913 380 880 413 880 c 0
 436 880 448 888 459 921 c 1xdc
 522 902 l 1
 506 845 465 814 413 814 c 0
 367 814 330 847 288 847 c 0
 267 847 249 822 237 797 c 1
EndSplineSet
EndChar

StartChar: otilde
Encoding: 245 245 112
Width: 647
Flags: MW
HStem: -5 93<321 359.5 321 398.5> 464 90<287 329 252 365> 645 99<236 413> 732 20G<433 433>
VStem: 70 125<226 330.5 226 355.5> 453 124<220.5 324.5>
LayerCount: 2
Fore
SplineSet
329 554 m 1xec
 481 553 577 430 577 273 c 0
 577 115 474 -5 323 -5 c 0
 168 -5 70 118 70 275 c 0
 70 436 175 554 329 554 c 1xec
321 88 m 0
 398 88 453 168 453 273 c 0
 453 376 404 464 326 464 c 0
 248 464 195 383 195 278 c 0
 195 174 242 89 321 88 c 0
211 628 m 1
 151 654 l 1
 170 699 210 744 262 744 c 0xec
 311 744 354 711 387 711 c 0
 410 711 422 719 433 752 c 1xdc
 496 733 l 1
 480 676 439 645 387 645 c 0
 341 645 304 678 262 678 c 0
 241 678 223 653 211 628 c 1
EndSplineSet
EndChar

StartChar: Zcaron
Encoding: 381 381 115
Width: 630
Flags: MW
HStem: 0 95<192 555 76 76> 625 95<76 439 76 555 76 555> 908 20G<164 272 272 272 357 465 465 465>
LayerCount: 2
Fore
SplineSet
76 720 m 1
 555 720 l 1
 555 625 l 1
 212 110 l 1
 192 95 l 1
 555 95 l 1
 555 0 l 1
 76 0 l 1
 76 95 l 1
 419 609 l 1
 439 625 l 1
 76 625 l 1
 76 720 l 1
164 928 m 1
 272 928 l 1
 314 851 l 1
 357 928 l 1
 465 928 l 1
 359 789 l 1
 270 789 l 1
 164 928 l 1
EndSplineSet
EndChar

StartChar: three
Encoding: 51 51 117
Width: 565
Flags: MW
HStem: -5 84<213.5 290> 635 89<204.5 294>
VStem: 362 110<484 548> 385 112<171 243>
LayerCount: 2
Fore
SplineSet
358 379 m 1xe0
 417 372 497 316 497 208 c 0
 497 10 312 -5 268 -5 c 0
 159 -5 97 15 72 29 c 1
 99 113 l 1
 122 101 128 79 251 79 c 0
 340 79 385 134 385 208 c 0xd0
 385 278 343 333 266 333 c 0
 175 333 166 333 166 333 c 1
 167 333 l 1
 166 412 l 1
 232 412 l 2
 287 412 362 406 362 524 c 0
 362 572 354 635 234 635 c 0
 175 635 141 620 122 613 c 1
 88 701 l 1
 118 710 160 724 246 724 c 0
 369 724 472 664 472 524 c 0
 472 444 407 390 358 379 c 1xe0
EndSplineSet
EndChar

StartChar: four
Encoding: 52 52 118
Width: 607
Flags: MW
HStem: 0 21G<349 349 349 468> 168 93<142 349 37 37 468 543> 700 20G<349 468 468 468>
VStem: 349 119<0 168 0 168 261 583 583 583>
LayerCount: 2
Fore
SplineSet
349 0 m 1
 349 168 l 1
 37 168 l 1
 37 261 l 1
 349 720 l 1
 468 720 l 1
 468 261 l 1
 543 261 l 1
 543 168 l 1
 468 168 l 1
 468 0 l 1
 349 0 l 1
142 261 m 1
 349 261 l 1
 349 583 l 1
 142 261 l 1
EndSplineSet
EndChar

StartChar: aid
Encoding: 65541 -1 119
Width: 1065
Flags: MW
HStem: 0 108<474 593 474 792> 383 108<474 593 474 474> 531 20G<275 336 336 336 731 792 792 843> 669 20G<336 731 731 731>
LayerCount: 2
Fore
SplineSet
792 551 m 2
 894 551 937 531 937 412 c 2
 937 139 l 2
 937 62 948 0 792 0 c 2
 257 0 l 2
 118 0 130 69 130 139 c 2
 130 412 l 2
 130 489 118 551 275 551 c 2
 336 551 l 1
 336 689 l 1
 731 689 l 1
 731 551 l 1
 792 551 l 2
671 186 m 1
 671 305 l 1
 593 305 l 1
 593 383 l 1
 474 383 l 1
 474 305 l 1
 396 305 l 1
 396 186 l 1
 474 186 l 1
 474 108 l 1
 593 108 l 1
 593 186 l 1
 671 186 l 1
671 491 m 1
 671 629 l 1
 396 629 l 1
 396 491 l 1
 671 491 l 1
EndSplineSet
EndChar

StartChar: seven
Encoding: 55 55 120
Width: 556
Flags: MW
HStem: 0 21G<125 234 125 125> 624 96<62 375 62 514>
LayerCount: 2
Fore
SplineSet
234 0 m 1
 125 0 l 1
 375 624 l 1
 62 624 l 1
 62 720 l 1
 514 720 l 1
 234 0 l 1
EndSplineSet
EndChar

StartChar: ring
Encoding: 730 730 121
Width: 381
Flags: MW
HStem: 620 21G<157.5 224.5> 843 20G<157.5 224.5>
VStem: 69 243<708.5 775.5>
LayerCount: 2
Fore
SplineSet
191 863 m 0
 258 863 312 809 312 742 c 0
 312 675 258 620 191 620 c 0
 124 620 69 675 69 742 c 0
 69 809 124 863 191 863 c 0
191 679 m 0
 226 679 254 707 254 742 c 0
 254 776 226 804 191 804 c 0
 156 804 128 776 128 742 c 0
 128 707 156 679 191 679 c 0
EndSplineSet
EndChar

StartChar: Aring
Encoding: 197 197 123
Width: 742
Flags: MW
HStem: 0 21G<62 184 62 62 559 559 559 680> 149 80<264 479 264 507 236 479> 1012 20G<337.5 404.5>
VStem: 249 243<877.5 944.5>
LayerCount: 2
Fore
SplineSet
184 0 m 1
 62 0 l 1
 313 719 l 1
 430 719 l 1
 680 0 l 1
 559 0 l 1
 507 149 l 1
 236 149 l 1
 184 0 l 1
372 539 m 1
 264 229 l 1
 479 229 l 1
 372 539 l 1
371 1032 m 0
 438 1032 492 978 492 911 c 0
 492 844 438 789 371 789 c 0
 304 789 249 844 249 911 c 0
 249 978 304 1032 371 1032 c 0
371 848 m 0
 406 848 434 876 434 911 c 0
 434 945 406 973 371 973 c 0
 336 973 308 945 308 911 c 0
 308 876 336 848 371 848 c 0
EndSplineSet
EndChar

StartChar: cedilla
Encoding: 184 184 124
Width: 288
Flags: MW
HStem: -237 21G<117 150.5> -13 20G<104 179 179 179>
LayerCount: 2
Fore
SplineSet
113 -69 m 1
 125 -64 136 -62 147 -62 c 0
 195 -62 228 -105 228 -142 c 0
 228 -202 184 -237 117 -237 c 1
 117 -181 l 1
 152 -181 170 -169 170 -144 c 0
 170 -122 150 -103 118 -103 c 0
 108 -103 98 -105 87 -108 c 1
 47 -90 l 1
 104 7 l 1
 179 7 l 1
 113 -69 l 1
EndSplineSet
EndChar

StartChar: Ccedilla
Encoding: 199 199 126
Width: 656
Flags: MW
HStem: -237 21G<340 373.5> -5 96<327.5 397 327.5 416> 635 96<331.5 401.5>
VStem: 77 119<363 363>
LayerCount: 2
Fore
SplineSet
496 145 m 1
 577 73 l 1
 524 21 455 -5 377 -5 c 0
 207 -5 77 120 77 363 c 0
 77 606 207 731 377 731 c 0
 455 731 524 705 577 653 c 1
 496 581 l 1
 464 618 423 635 380 635 c 0
 283 635 198 564 196 363 c 1
 198 168 281 91 374 91 c 0
 420 91 463 107 496 145 c 1
336 -69 m 1
 348 -64 359 -62 370 -62 c 0
 418 -62 451 -105 451 -142 c 0
 451 -202 407 -237 340 -237 c 1
 340 -181 l 1
 375 -181 393 -169 393 -144 c 0
 393 -122 373 -103 341 -103 c 0
 331 -103 321 -105 310 -108 c 1
 270 -90 l 1
 327 7 l 1
 402 7 l 1
 336 -69 l 1
EndSplineSet
EndChar

StartChar: food
Encoding: 65542 -1 127
Width: 555
Flags: MW
HStem: 0 21G<258 297 258 258>
LayerCount: 2
Fore
SplineSet
417 506 m 0
 369 458 317 464 317 464 c 1
 317 464 311 516 359 563 c 0
 407 611 459 605 459 605 c 1
 459 605 464 554 417 506 c 0
417 386 m 0
 369 338 317 344 317 344 c 1
 317 344 311 395 359 443 c 0
 407 491 459 485 459 485 c 1
 459 485 464 434 417 386 c 0
417 266 m 0
 369 218 317 224 317 224 c 1
 317 224 311 275 359 323 c 0
 407 371 459 365 459 365 c 1
 459 365 464 314 417 266 c 0
417 626 m 0
 369 578 317 584 317 584 c 1
 317 584 311 636 359 684 c 0
 407 731 459 725 459 725 c 1
 459 725 464 674 417 626 c 0
138 506 m 0
 91 554 96 605 96 605 c 1
 96 605 148 611 196 563 c 0
 244 516 238 464 238 464 c 1
 238 464 186 458 138 506 c 0
138 386 m 0
 91 434 96 485 96 485 c 1
 96 485 148 491 196 443 c 0
 244 395 238 344 238 344 c 1
 238 344 186 338 138 386 c 0
138 266 m 0
 91 314 96 365 96 365 c 1
 96 365 148 371 196 323 c 0
 244 275 238 224 238 224 c 1
 238 224 186 218 138 266 c 0
138 626 m 0
 91 674 96 725 96 725 c 1
 96 725 148 731 196 684 c 0
 244 636 238 584 238 584 c 1
 238 584 186 578 138 626 c 0
297 0 m 1
 258 0 l 1
 258 690 l 1
 297 690 l 1
 297 0 l 1
EndSplineSet
EndChar

StartChar: up
Encoding: 65543 -1 128
Width: 801
Flags: MW
HStem: 0 21G<341 460 341 341> 705 20G<401 401>
VStem: 341 119<0 469 0 469>
LayerCount: 2
Fore
SplineSet
720 406 m 1
 720 209 l 1
 460 469 l 1
 460 0 l 1
 341 0 l 1
 341 469 l 1
 81 209 l 1
 81 406 l 1
 401 725 l 1
 720 406 l 1
EndSplineSet
EndChar

StartChar: water
Encoding: 65544 -1 129
Width: 700
Flags: MW
HStem: -10 150<274.5 487> 705 20G
VStem: 519 81<195 232>
LayerCount: 2
Fore
SplineSet
351 725 m 1
 480 596 600 407 600 255 c 0
 600 103 503 -10 351 -10 c 0
 198 -10 100 103 100 255 c 0
 100 407 221 596 351 725 c 1
471 140 m 0
 503 140 519 182 519 208 c 0
 519 256 493 312 475 344 c 1
 475 314 462 278 453 261 c 1
 442 235 425 225 425 192 c 0
 425 160 451 140 471 140 c 0
EndSplineSet
EndChar

StartChar: shelter
Encoding: 65545 -1 130
Width: 839
Flags: MW
HStem: 0 21G<160 249 160 160 360 360 360 479 590 590 590 679> 693 20G<420 420>
VStem: 100 149<247 394 394 394> 160 89<0 307 307 307> 360 119<0 216 0 216> 590 89<0 307 0 396> 590 149<247 394 247 396 247 396>
LayerCount: 2
Fore
SplineSet
360 0 m 1xec
 360 216 l 1
 479 216 l 1
 479 0 l 1
 360 0 l 1xec
420 713 m 1
 739 394 l 1
 739 247 l 1xea
 679 307 l 1
 679 0 l 1
 590 0 l 1
 590 396 l 1
 420 567 l 1
 249 396 l 1
 249 0 l 1
 160 0 l 1
 160 307 l 1xdc
 100 247 l 1
 100 394 l 1
 420 713 l 1
EndSplineSet
EndChar

StartChar: transport
Encoding: 65546 -1 131
Width: 861
Flags: MW
HStem: -2 21G<208.5 229 229 254 581.5 602 602 628> 102 80<137 259.5 228.5 561 228.5 300> 295 86<228.5 259.5 602 633.5> 633 80<282 323 323 553>
LayerCount: 2
Fore
SplineSet
724 574 m 2
 724 301 l 2
 724 287 724 272 724 258 c 2
 724 102 l 1
 674 102 l 1
 674 39 l 2
 674 26 674 -2 628 -2 c 2
 602 -2 l 2
 561 -2 561 28 561 49 c 2
 561 102 l 1
 300 102 l 1
 300 39 l 2
 300 26 301 -2 254 -2 c 2
 229 -2 l 2
 188 -2 187 28 187 49 c 2
 187 102 l 1
 137 102 l 1
 137 574 l 2
 137 650 126 713 282 713 c 2
 597 713 l 2
 735 713 724 644 724 574 c 2
323 633 m 2
 212 633 212 584 212 533 c 0
 212 525 212 478 211 381 c 1
 650 381 l 1
 650 478 650 527 650 535 c 0
 650 582 650 633 553 633 c 2
 323 633 l 2
244 182 m 0
 275 182 300 208 300 239 c 0
 300 270 275 295 244 295 c 0
 213 295 187 270 187 239 c 0
 187 208 213 182 244 182 c 0
618 182 m 0
 649 182 674 208 674 239 c 0
 674 270 649 295 618 295 c 0
 586 295 561 270 561 239 c 0
 561 208 586 182 618 182 c 0
EndSplineSet
EndChar

StartChar: woman
Encoding: 65547 -1 132
Width: 457
Flags: MW
HStem: 0 21G<192 267 192 192> 627 140<210.5 249>
VStem: 94 177 160 140<677.5 716> 188 83 188 176
LayerCount: 2
Fore
SplineSet
230 627 m 0xc8
 191 627 160 658 160 697 c 0
 160 735 191 767 230 767 c 0
 268 767 300 735 300 697 c 0xd0
 300 658 268 627 230 627 c 0xc8
364 517 m 2xc4
 364 537 l 1
 364 326 l 1xc4
 315 326 l 1
 315 522 l 1
 302 522 l 1
 279 423 l 1
 279 389 l 1
 334 180 l 1
 275 180 l 1
 267 0 l 1
 192 0 l 1
 184 180 l 1
 125 180 l 1
 180 389 l 1
 180 424 l 1
 157 522 l 1
 144 522 l 1
 144 326 l 1
 94 326 l 1
 94 522 l 2xe0
 94 556 92 581 161 581 c 2
 306 581 l 2
 360 581 364 558 364 532 c 0
 364 527 364 522 364 517 c 2xc4
EndSplineSet
EndChar

StartChar: man
Encoding: 65548 -1 133
Width: 455
Flags: MW
HStem: 0 21G<167 286 167 167> 627 140<207.5 246>
VStem: 92 194<306 522 0 535 0 537 0 537> 167 119<0 522 0 522> 167 195<306 522 522 522>
LayerCount: 2
Fore
SplineSet
362 517 m 2xc8
 362 537 l 1
 362 306 l 1xc8
 305 306 l 1
 305 522 l 1
 286 522 l 1
 286 0 l 1
 167 0 l 1
 167 522 l 1xd0
 148 522 l 1
 148 306 l 1
 92 306 l 1
 92 522 l 2
 92 527 92 531 92 535 c 2
 92 537 l 1xe0
 93 563 101 581 159 581 c 2
 303 581 l 2
 367 581 362 549 362 517 c 2xc8
362 371 m 2
 362 391 l 2
 362 384 362 378 362 371 c 2
227 627 m 0
 188 627 157 658 157 697 c 0
 157 735 188 767 227 767 c 0
 265 767 297 735 297 697 c 0
 297 658 265 627 227 627 c 0
EndSplineSet
EndChar

StartChar: downright
Encoding: 65549 -1 134
Width: 808
Flags: MW
HStem: 0 138<229 458 90 681 229 229> 570 20G<542 542>
VStem: 542 139<222 451 0 590>
LayerCount: 2
Fore
SplineSet
542 590 m 1
 681 451 l 1
 681 0 l 1
 229 0 l 1
 90 138 l 1
 458 138 l 1
 126 470 l 1
 210 554 l 1
 542 222 l 1
 542 590 l 1
EndSplineSet
EndChar

StartChar: six
Encoding: 54 54 135
Width: 631
Flags: MW
HStem: -6 95<282.5 361 282.5 367.5> 400 87<305 361> 634 91<289.5 368.5 270.5 372>
VStem: 71 111<201.5 292 201.5 456.5> 459 103<201.5 292>
LayerCount: 2
Fore
SplineSet
339 487 m 0
 476 487 562 366 562 257 c 0
 562 54 414 -6 321 -6 c 0
 150 -6 71 116 71 284 c 0
 71 629 209 725 332 725 c 0
 405 725 472 718 518 688 c 1
 480 607 l 1
 444 631 401 634 343 634 c 0
 236 634 188 532 187 423 c 1
 188 424 193 424 194 425 c 0
 211 459 271 487 339 487 c 0
322 89 m 0
 400 89 459 156 459 247 c 0
 459 337 400 400 322 400 c 0
 243 400 182 337 182 247 c 0
 182 156 243 89 322 89 c 0
EndSplineSet
EndChar

StartChar: nine
Encoding: 57 57 136
Width: 630
Flags: MW
HStem: -5 92<261.5 340.5 258 359.5> 232 87<269 325> 630 95<269 347.5>
VStem: 68 103<427 517.5 427 563.5> 448 111<427 517.5>
LayerCount: 2
Fore
SplineSet
291 232 m 0
 154 232 68 353 68 462 c 0
 68 665 216 725 309 725 c 0
 480 725 559 603 559 435 c 0
 559 90 421 -5 298 -5 c 0
 225 -5 158 3 112 33 c 1
 150 114 l 1
 186 90 229 87 287 87 c 0
 394 87 442 187 443 296 c 1
 442 295 437 295 436 294 c 0
 419 260 359 232 291 232 c 0
308 630 m 0
 230 630 171 563 171 472 c 0
 171 382 230 319 308 319 c 0
 387 319 448 382 448 472 c 0
 448 563 387 630 308 630 c 0
EndSplineSet
EndChar

StartChar: five
Encoding: 53 53 138
Width: 591
Flags: MW
HStem: -5 87<227 305.5 227 312.5> 354 93<284.5 321.5> 624 96<208 477 208 208>
VStem: 412 104<182 270>
LayerCount: 2
Fore
SplineSet
477 624 m 1
 208 624 l 1
 181 431 181 427 181 423 c 1
 200 442 271 447 298 447 c 0
 435 447 516 342 516 233 c 0
 516 20 354 -5 271 -5 c 0
 182 -5 109 30 81 44 c 1
 81 142 l 1
 119 118 196 82 258 82 c 0
 353 82 412 131 412 233 c 0
 412 307 360 354 283 354 c 0
 236 354 192 343 160 318 c 1
 76 318 l 1
 77 361 120 720 120 720 c 1
 477 720 l 1
 477 624 l 1
EndSplineSet
EndChar

StartChar: eight
Encoding: 56 56 139
Width: 593
Flags: MW
HStem: -9 92<266.5 335.5 266.5 362.5> 631 94<272 329.5>
VStem: 70 105<161.5 228.5 161.5 235> 93 100<513 567.5 513 598.5> 397 100<510.5 575.5> 419 105<154.5 212>
LayerCount: 2
Fore
SplineSet
303 725 m 0xd8
 445 725 497 636 497 540 c 0xe8
 497 479 443 421 393 379 c 1
 463 335 524 278 524 191 c 0
 524 67 422 -9 303 -9 c 0
 154 -9 70 65 70 187 c 0xe4
 70 283 121 349 192 382 c 1
 136 422 93 470 93 538 c 0
 93 659 188 725 303 725 c 0xd8
419 178 m 0xe4
 419 246 341 289 262 337 c 1
 228 309 175 265 175 192 c 0
 175 131 230 83 303 83 c 0
 368 83 419 131 419 178 c 0xe4
193 536 m 0xd8
 193 490 257 457 329 417 c 1
 362 445 397 483 397 538 c 0
 397 613 355 631 304 631 c 0
 240 631 193 599 193 536 c 0xd8
EndSplineSet
EndChar

StartChar: I
Encoding: 73 73 140
Width: 301
Flags: MW
HStem: 0 21G<92 211 92 92> 700 20G<92 211 211 211>
VStem: 92 119<0 720 0 720>
LayerCount: 2
Fore
SplineSet
211 720 m 1
 211 0 l 1
 92 0 l 1
 92 720 l 1
 211 720 l 1
EndSplineSet
EndChar

StartChar: H
Encoding: 72 72 141
Width: 732
Flags: MW
HStem: 0 21G<92 211 92 92 522 640 522 522> 324 80<211 522 211 522> 700 20G<92 211 211 211 522 640 640 640>
VStem: 92 119<0 324 0 404 404 720> 522 118<0 324 324 324 404 720 0 720>
LayerCount: 2
Fore
SplineSet
522 720 m 1
 640 720 l 1
 640 0 l 1
 522 0 l 1
 522 324 l 1
 211 324 l 1
 211 0 l 1
 92 0 l 1
 92 720 l 1
 211 720 l 1
 211 404 l 1
 522 404 l 1
 522 720 l 1
EndSplineSet
EndChar

StartChar: a
Encoding: 97 97 142
Width: 586
Flags: MW
HStem: -5 21G<192.5 267> -1 21G<465.5 483> 474 81<257.5 306>
VStem: 69 111<133.5 208 133.5 222.5> 365 118
LayerCount: 2
Fore
SplineSet
483 298 m 2xb8
 483 171 l 1
 483 171 483 168 483 163 c 0
 483 141 485 75 515 64 c 1
 483 -1 l 1x78
 448 -1 404 34 393 74 c 1
 374 30 297 -5 237 -5 c 0
 148 -5 69 39 69 163 c 0
 69 282 179 336 282 336 c 2
 365 336 l 1
 365 465 338 474 274 474 c 0
 219 474 169 440 152 426 c 1
 108 493 l 1
 136 522 215 555 300 555 c 0
 378 555 453 527 472 436 c 0
 481 391 483 343 483 298 c 2xb8
366 132 m 1
 366 132 366 234 366 267 c 1
 304 267 l 2
 252 267 180 250 180 166 c 0
 180 101 210 74 266 74 c 0
 305 74 344 96 366 132 c 1
EndSplineSet
EndChar

StartChar: scaron
Encoding: 353 353 143
Width: 524
Flags: MW
HStem: -5 91<215 272.5 210 303.5> 464 97<243 289> 620 139<217 219 304 306 217 217>
VStem: 71 117<361 420.5 346 448.5> 352 102<129.5 182>
LayerCount: 2
Fore
SplineSet
73 44 m 1
 136 0 182 -5 248 -5 c 0
 359 -5 454 48 454 160 c 0
 454 334 188 295 188 397 c 0
 188 444 219 464 267 464 c 0
 311 464 359 457 397 435 c 1
 436 516 l 1
 384 548 332 561 267 561 c 0
 169 561 71 503 71 394 c 0
 71 328 106 292 175 256 c 0
 245 220 352 213 352 151 c 0
 352 108 308 86 237 86 c 0
 183 86 149 105 123 123 c 1
 73 44 l 1
111 759 m 1
 219 759 l 1
 261 682 l 1
 304 759 l 1
 412 759 l 1
 306 620 l 1
 217 620 l 1
 111 759 l 1
EndSplineSet
EndChar

StartChar: ampersand
Encoding: 38 38 144
Width: 689
Flags: MW
HStem: -7 85<222 292> 0 21G<516 638 516 516> 632 95<276.5 321.5>
VStem: 71 95<155 192.5 155 220.5> 119 95<528.5 582.5 528.5 607.5> 385 91<555 579>
LayerCount: 2
Fore
SplineSet
638 0 m 1x6c
 516 0 l 1x6c
 448 84 l 1
 407 29 338 -7 246 -7 c 0
 164 -7 71 46 71 169 c 0xb4
 71 272 142 345 209 388 c 1
 177 419 119 479 119 562 c 0
 119 653 193 727 297 727 c 0
 388 727 476 673 476 555 c 1
 472 454 404 389 344 358 c 1
 369 323 413 280 447 239 c 1
 461 261 475 284 489 317 c 1
 565 286 l 1
 551 245 529 204 506 164 c 1
 638 0 l 1x6c
297 632 m 0
 256 632 214 603 214 562 c 0
 214 495 267 451 288 427 c 1
 352 454 385 506 385 553 c 0
 385 605 346 632 297 632 c 0
256 78 m 0xb4
 335 78 370 126 395 155 c 1
 352 208 297 267 263 313 c 1
 195 270 166 216 166 169 c 0
 166 141 188 78 256 78 c 0xb4
EndSplineSet
EndChar

StartChar: question
Encoding: 63 63 145
Width: 496
Flags: MW
HStem: -4 140<171.5 210> 711 20G<201.5 289>
VStem: 121 140<46.5 85> 146 89<198 314> 338 111<456 556>
LayerCount: 2
Fore
SplineSet
235 198 m 1xd8
 231 198 214 198 146 198 c 1
 146 430 338 378 338 534 c 0
 338 578 292 627 240 632 c 0
 146 641 127 615 112 608 c 1
 110 611 83 661 66 696 c 1
 104 721 172 731 231 731 c 0
 347 731 449 657 449 530 c 0
 449 321 235 352 235 198 c 1
 235 198 l 1xd8
261 66 m 0xe8
 261 27 229 -4 191 -4 c 0
 152 -4 121 27 121 66 c 0
 121 104 152 136 191 136 c 0
 229 136 261 104 261 66 c 0xe8
EndSplineSet
EndChar

StartChar: exclam
Encoding: 33 33 146
Width: 286
Flags: MW
HStem: -4 140<123.5 162> 700 20G<83 202 202 202>
VStem: 73 140<46.5 85>
LayerCount: 2
Fore
SplineSet
202 720 m 1
 186 199 l 1
 99 199 l 1
 83 720 l 1
 202 720 l 1
213 66 m 0
 213 104 181 136 143 136 c 0
 104 136 73 104 73 66 c 0
 73 27 104 -4 143 -4 c 0
 181 -4 213 27 213 66 c 0
EndSplineSet
EndChar

StartChar: bar
Encoding: 124 124 147
Width: 245
Flags: MW
HStem: -236 21G<84 163 84 84> 770 20G<84 163 163 163>
LayerCount: 2
Fore
SplineSet
163 790 m 1
 163 -236 l 1
 84 -236 l 1
 84 790 l 1
 163 790 l 1
EndSplineSet
EndChar

StartChar: dollar
Encoding: 36 36 148
Width: 530
Flags: MW
HStem: -95 21G<241 320 241 241> 790 20G<252 331 331 331>
VStem: 84 111<456 556 456 584> 84 236 388 109<163.5 266>
LayerCount: 2
Fore
SplineSet
195 534 m 0xd8
 195 378 497 429 497 197 c 0
 497 106 431 21 320 1 c 1
 320 -95 l 1
 241 -95 l 1
 241 -3 l 1
 185 0 119 13 79 48 c 1
 100 132 l 1
 138 111 213 89 265 89 c 0
 345 89 388 128 388 199 c 0
 388 333 84 321 84 530 c 0
 84 638 158 708 252 726 c 1
 252 810 l 1
 331 810 l 1
 331 730 l 1
 382 727 435 717 467 696 c 1
 450 661 423 611 421 608 c 1
 406 615 387 641 293 632 c 0
 241 627 195 578 195 534 c 0xd8
EndSplineSet
EndChar

StartChar: slash
Encoding: 47 47 149
Width: 444
Flags: MW
HStem: -21 21G<33 112 33 33> 760 20G<333 412 412 412>
LayerCount: 2
Fore
SplineSet
412 780 m 1
 112 -21 l 1
 33 -21 l 1
 333 780 l 1
 412 780 l 1
EndSplineSet
EndChar

StartChar: backslash
Encoding: 92 92 150
Width: 445
Flags: MW
HStem: -21 21G<333 333 333 412> 760 20G<33 112 112 112>
LayerCount: 2
Fore
SplineSet
333 -21 m 1
 33 780 l 1
 112 780 l 1
 412 -21 l 1
 333 -21 l 1
EndSplineSet
EndChar

StartChar: parenleft
Encoding: 40 40 151
Width: 288
Flags: MW
HStem: -60 21G<167 234 167 167> 719 20G<155 217 217 217>
VStem: 57 80
LayerCount: 2
Fore
SplineSet
234 -60 m 1
 167 -60 l 1
 111 12 57 208 57 353 c 0
 57 489 106 675 155 739 c 1
 217 739 l 1
 197 709 140 564 137 333 c 0
 134 131 211 -28 234 -60 c 1
EndSplineSet
EndChar

StartChar: parenright
Encoding: 41 41 152
Width: 287
Flags: MW
HStem: -60 21G<53 120 53 53> 719 20G<70 132 132 132>
VStem: 150 80
LayerCount: 2
Fore
SplineSet
120 -60 m 1
 53 -60 l 1
 76 -28 153 131 150 333 c 0
 147 564 90 709 70 739 c 1
 132 739 l 1
 181 675 230 489 230 353 c 0
 230 208 176 12 120 -60 c 1
EndSplineSet
EndChar

StartChar: comma
Encoding: 44 44 154
Width: 264
Flags: MW
HStem: -117 21G<65 111 65 73> -4 21G<113.5 133> 116 20G<113.5 152>
LayerCount: 2
Fore
SplineSet
133 136 m 0
 171 136 203 104 203 66 c 0
 203 52 207 -36 111 -117 c 1
 111 -117 81 -117 65 -117 c 1
 117 -66 133 -4 133 -4 c 1
 94 -4 63 27 63 66 c 0
 63 104 94 136 133 136 c 0
EndSplineSet
EndChar

StartChar: bracketleft
Encoding: 91 91 155
Width: 320
Flags: MW
HStem: -60 21G<84 264 84 84> 719 20G<84 264 264 264>
VStem: 84 180<-60 19 660 739>
LayerCount: 2
Fore
SplineSet
264 660 m 1
 163 660 l 1
 163 19 l 1
 264 19 l 1
 264 -60 l 1
 84 -60 l 1
 84 739 l 1
 264 739 l 1
 264 660 l 1
EndSplineSet
EndChar

StartChar: bracketright
Encoding: 93 93 156
Width: 320
Flags: MW
HStem: -60 21G<84 264 84 84> 719 20G<84 264 264 264>
VStem: 84 180<-60 19 19 19 660 739 -60 739>
LayerCount: 2
Fore
SplineSet
185 660 m 1
 84 660 l 1
 84 739 l 1
 264 739 l 1
 264 -60 l 1
 84 -60 l 1
 84 19 l 1
 185 19 l 1
 185 660 l 1
EndSplineSet
EndChar

StartChar: hyphen
Encoding: 45 45 157
Width: 478
Flags: MW
HStem: 236 99<84 395 84 395>
LayerCount: 2
Fore
SplineSet
84 335 m 1
 395 335 l 1
 395 236 l 1
 84 236 l 1
 84 335 l 1
EndSplineSet
EndChar

StartChar: plus
Encoding: 43 43 158
Width: 633
Flags: MW
HStem: 0 21G<267 366 267 267> 226 99<41 267 41 267 366 592> 531 20G<267 366 366 366>
VStem: 267 99<0 226 0 226 325 551>
LayerCount: 2
Fore
SplineSet
592 325 m 1
 592 226 l 1
 366 226 l 1
 366 0 l 1
 267 0 l 1
 267 226 l 1
 41 226 l 1
 41 325 l 1
 267 325 l 1
 267 551 l 1
 366 551 l 1
 366 325 l 1
 592 325 l 1
EndSplineSet
EndChar

StartChar: fruit
Encoding: 65550 -1 159
Width: 660
Flags: MW
HStem: -5 21G<269.5 408>
LayerCount: 2
Fore
SplineSet
339 511 m 0
 481 511 564 407 564 255 c 0
 564 127 477 -5 339 -5 c 0
 200 -5 113 127 113 255 c 0
 113 407 196 511 339 511 c 0
443 583 m 1
 443 583 l 1
 395 535 344 541 344 541 c 1
 344 541 338 593 385 640 c 0
 433 688 485 682 485 682 c 1
 485 682 491 631 443 583 c 1
324 541 m 1
 324 541 254 533 191 597 c 0
 127 661 135 730 135 730 c 1
 135 730 204 737 268 673 c 0
 332 610 324 541 324 541 c 1
EndSplineSet
EndChar

StartChar: downleft
Encoding: 65551 -1 160
Width: 809
Flags: MW
HStem: 0 138<351 580> 570 20G<267 267>
VStem: 128 139<222 451 451 451>
LayerCount: 2
Fore
SplineSet
128 451 m 1
 267 590 l 1
 267 222 l 1
 599 554 l 1
 683 470 l 1
 351 138 l 1
 719 138 l 1
 580 0 l 1
 128 0 l 1
 128 451 l 1
EndSplineSet
EndChar

StartChar: right
Encoding: 65552 -1 161
Width: 876
Flags: MW
HStem: 38 21G<277 474 277 277> 298 119<68 537 68 537> 657 20G<277 474 474 474>
LayerCount: 2
Fore
SplineSet
277 677 m 1
 474 677 l 1
 793 358 l 1
 474 38 l 1
 277 38 l 1
 537 298 l 1
 68 298 l 1
 68 417 l 1
 537 417 l 1
 277 677 l 1
EndSplineSet
EndChar

StartChar: left
Encoding: 65553 -1 162
Width: 877
Flags: MW
HStem: 38 21G<402 599 402 402> 298 119<339 808 339 808> 657 20G<402 599 599 599>
LayerCount: 2
Fore
SplineSet
402 677 m 1
 599 677 l 1
 339 417 l 1
 808 417 l 1
 808 298 l 1
 339 298 l 1
 599 38 l 1
 402 38 l 1
 83 358 l 1
 402 677 l 1
EndSplineSet
EndChar

StartChar: down
Encoding: 65555 -1 164
Width: 801
Flags: MW
HStem: -5 21G<401 401> 700 20G<341 460 460 460>
VStem: 341 119<251 720 251 720>
LayerCount: 2
Fore
SplineSet
720 511 m 1
 720 314 l 1
 401 -5 l 1
 81 314 l 1
 81 511 l 1
 341 251 l 1
 341 720 l 1
 460 720 l 1
 460 251 l 1
 720 511 l 1
EndSplineSet
EndChar

StartChar: at
Encoding: 64 64 165
Width: 1016
Flags: MW
HStem: -117 21G<274 274> 59 85<744.5 794.5 744.5 811.5> 685 95<410.5 636>
VStem: 72 95<203 403.5 203 451> 304 97<253 333.5 253 379> 602 87 866 95<266 435>
LayerCount: 2
Fore
SplineSet
539 780 m 0
 816 780 961 564 961 330 c 0
 961 166 878 59 745 59 c 0
 701 59 625 87 605 131 c 1
 596 131 l 1
 591 104 533 76 472 76 c 0
 361 76 304 183 304 300 c 0
 304 458 400 513 482 513 c 0
 531 513 576 494 596 466 c 1
 606 509 l 1
 689 509 l 1
 690 225 l 2
 690 161 731 144 758 144 c 0
 831 144 866 202 866 330 c 0
 866 540 733 685 539 685 c 0
 282 685 167 513 167 294 c 0
 167 112 284 -21 329 -52 c 1
 274 -117 l 1
 193 -51 72 108 72 294 c 0
 72 608 263 780 539 780 c 0
501 148 m 0
 564 148 602 214 602 294 c 0
 602 376 561 442 500 442 c 0
 438 442 401 374 401 293 c 0
 401 213 442 148 501 148 c 0
EndSplineSet
EndChar

StartChar: yen
Encoding: 165 165 166
Width: 649
Flags: MW
HStem: 0 21G<260 379 260 260> 197 80<100 260 100 260 379 549> 337 80<100 198 100 235 100 198 441 549> 700 20G<57 191 191 191 459 593 593 593>
VStem: 260 119<0 197 0 197 277 283 0 283>
LayerCount: 2
Fore
SplineSet
593 720 m 1
 441 417 l 1
 549 417 l 1
 549 337 l 1
 401 337 l 1
 379 283 l 1
 379 277 l 1
 549 277 l 1
 549 197 l 1
 379 197 l 1
 379 0 l 1
 260 0 l 1
 260 197 l 1
 100 197 l 1
 100 277 l 1
 260 277 l 1
 260 283 l 1
 235 337 l 1
 100 337 l 1
 100 417 l 1
 198 417 l 1
 57 720 l 1
 191 720 l 1
 315 397 l 1
 325 397 l 1
 459 720 l 1
 593 720 l 1
EndSplineSet
EndChar

StartChar: semicolon
Encoding: 59 59 167
Width: 268
Flags: MW
HStem: -117 21G<66 112 66 74> -4 21G<114.5 134> 416 140<114.5 153>
VStem: 64 140<59 85 59 85 466.5 505>
LayerCount: 2
Fore
SplineSet
134 136 m 0
 172 136 204 104 204 66 c 0
 204 52 208 -36 112 -117 c 1
 112 -117 82 -117 66 -117 c 1
 118 -66 134 -4 134 -4 c 1
 95 -4 64 27 64 66 c 0
 64 104 95 136 134 136 c 0
204 486 m 0
 204 447 172 416 134 416 c 0
 95 416 64 447 64 486 c 0
 64 524 95 556 134 556 c 0
 172 556 204 524 204 486 c 0
EndSplineSet
EndChar

StartChar: colon
Encoding: 58 58 168
Width: 288
Flags: MW
HStem: -5 140<125.5 164> 416 140<125.5 164>
VStem: 75 140<45.5 84 466.5 505>
LayerCount: 2
Fore
SplineSet
215 486 m 0
 215 447 183 416 145 416 c 0
 106 416 75 447 75 486 c 0
 75 524 106 556 145 556 c 0
 183 556 215 524 215 486 c 0
215 65 m 0
 215 26 183 -5 145 -5 c 0
 106 -5 75 26 75 65 c 0
 75 103 106 135 145 135 c 0
 183 135 215 103 215 65 c 0
EndSplineSet
EndChar

StartChar: quoteright
Encoding: 8217 8217 169
Width: 269
Flags: MW
HStem: 472 21G<71 117 71 79> 705 20G<119.5 158>
LayerCount: 2
Fore
SplineSet
139 725 m 0
 177 725 209 693 209 655 c 0
 209 641 213 553 117 472 c 1
 117 472 87 472 71 472 c 1
 123 523 139 585 139 585 c 1
 100 585 69 616 69 655 c 0
 69 693 100 725 139 725 c 0
EndSplineSet
EndChar

StartChar: quoteleft
Encoding: 8216 8216 170
Width: 270
Flags: MW
HStem: 472 21G<112 150.5> 705 20G<153 199 191 199>
LayerCount: 2
Fore
SplineSet
131 472 m 0
 93 472 61 504 61 542 c 0
 61 556 57 644 153 725 c 1
 153 725 183 725 199 725 c 1
 147 674 131 612 131 612 c 1
 170 612 201 581 201 542 c 0
 201 504 170 472 131 472 c 0
EndSplineSet
EndChar

StartChar: quotedblright
Encoding: 8221 8221 171
Width: 482
Flags: MW
HStem: 472 21G<79 125 79 87 269 277 269 315> 585 140<127.5 147 317.5 337>
LayerCount: 2
Fore
SplineSet
147 725 m 0
 185 725 217 693 217 655 c 0
 217 641 221 553 125 472 c 1
 125 472 95 472 79 472 c 1
 131 523 147 585 147 585 c 1
 108 585 77 616 77 655 c 0
 77 693 108 725 147 725 c 0
337 725 m 0
 375 725 407 693 407 655 c 0
 407 641 411 553 315 472 c 1
 315 472 285 472 269 472 c 1
 321 523 337 585 337 585 c 1
 298 585 267 616 267 655 c 0
 267 693 298 725 337 725 c 0
EndSplineSet
EndChar

StartChar: quotedblleft
Encoding: 8220 8220 172
Width: 483
Flags: MW
HStem: 472 140<146 165.5 146 165.5 336 355.5> 705 20G<168 214 206 214 358 404 396 404>
LayerCount: 2
Fore
SplineSet
336 472 m 0
 298 472 266 504 266 542 c 0
 266 556 262 644 358 725 c 1
 358 725 388 725 404 725 c 1
 352 674 336 612 336 612 c 1
 375 612 406 581 406 542 c 0
 406 504 375 472 336 472 c 0
146 472 m 0
 108 472 76 504 76 542 c 0
 76 556 72 644 168 725 c 1
 168 725 198 725 214 725 c 1
 162 674 146 612 146 612 c 1
 185 612 216 581 216 542 c 0
 216 504 185 472 146 472 c 0
EndSplineSet
EndChar

StartChar: upleft
Encoding: 65562 -1 179
Width: 808
Flags: MW
HStem: 0 21G<267 267> 452 138<351 580 128 719 351 351>
VStem: 128 139<139 368>
LayerCount: 2
Fore
SplineSet
267 0 m 1
 128 139 l 1
 128 590 l 1
 580 590 l 1
 719 452 l 1
 351 452 l 1
 683 120 l 1
 599 36 l 1
 267 368 l 1
 267 0 l 1
EndSplineSet
EndChar

StartChar: upright
Encoding: 65563 -1 180
Width: 807
Flags: MW
HStem: 0 21G<541 541> 452 138<228 457>
VStem: 541 139<139 139 139 368 368 368>
LayerCount: 2
Fore
SplineSet
680 139 m 1
 541 0 l 1
 541 368 l 1
 209 36 l 1
 125 120 l 1
 457 452 l 1
 89 452 l 1
 228 590 l 1
 680 590 l 1
 680 139 l 1
EndSplineSet
EndChar

StartChar: germandbls
Encoding: 223 223 185
Width: 640
Flags: MW
HStem: -5 84<350.5 407.5 350.5 421> 0 21G<79 198 79 79> 672 92<268 354>
VStem: 79 119<0 375 0 387 0 508.5> 433 109<535 584.5> 456 112<171 243>
LayerCount: 2
Fore
SplineSet
449 379 m 1x78
 508 372 568 316 568 208 c 0
 568 10 443 -5 399 -5 c 0
 290 -5 269 15 244 29 c 1
 271 104 l 1
 294 94 319 79 382 79 c 0
 433 79 456 134 456 208 c 0xb4
 456 278 414 333 357 333 c 2
 288 333 l 1
 288 412 l 1
 343 412 l 2
 385 412 425 437 433 535 c 1
 433 634 386 672 322 672 c 0
 214 672 198 575 198 375 c 2
 198 0 l 1
 79 0 l 1
 79 387 l 2
 79 630 129 764 319 764 c 0
 450 764 542 687 542 535 c 1
 533 465 494 389 449 379 c 1x78
EndSplineSet
EndChar

StartChar: thorn
Encoding: 254 254 186
Width: 611
Flags: MW
HStem: -217 21G<84 203 84 84> -5 92<322 360.5 322 434.5> 465 91<318.5 366.5> 739 20G<84 203 203 203>
VStem: 84 119<-217 65 495 759> 453 124<221.5 301 208.5 325>
LayerCount: 2
Fore
SplineSet
565 384 m 0
 573 354 577 319 577 283 c 0
 577 134 508 -5 361 -5 c 0
 283 -5 210 31 203 65 c 1
 203 47 203 -181 203 -217 c 1
 84 -217 l 1
 84 759 l 1
 203 759 l 1
 203 495 l 1
 229 531 287 556 350 556 c 0
 436 556 531 510 565 384 c 0
322 87 m 0
 399 87 453 169 453 274 c 0
 453 376 406 465 327 465 c 0
 249 465 195 384 195 279 c 0
 195 175 242 88 322 87 c 0
EndSplineSet
EndChar

StartChar: Thorn
Encoding: 222 222 187
Width: 833
Flags: MW
HStem: 0 21G<89 206 89 89> 180 86<206 313 206 293> 551 89<206 294 206 296> 700 20G<89 206 206 206>
VStem: 89 117<0 180 0 266 266 551 640 720> 434 113<358 441>
LayerCount: 2
Fore
SplineSet
206 180 m 1
 206 0 l 1
 89 0 l 1
 89 720 l 1
 206 720 l 1
 206 640 l 1
 296 640 l 2
 419 640 547 557 547 417 c 0
 547 270 444 180 293 180 c 2
 206 180 l 1
294 551 m 2
 206 551 l 1
 206 266 l 1
 313 266 l 2
 368 266 434 299 434 417 c 0
 434 465 414 551 294 551 c 2
EndSplineSet
EndChar

StartChar: Eth
Encoding: 208 208 188
Width: 752
Flags: MW
HStem: 0 86<211 327 327 366> 311 99<7 94 7 94 211 318> 631 89<211 279 211 211>
VStem: 94 117<86 86 86 311 410 631> 552 123<286.5 442.5>
LayerCount: 2
Fore
SplineSet
7 410 m 1
 94 410 l 1
 94 720 l 1
 311 720 l 2
 554 720 675 550 675 380 c 0
 675 22 422 0 366 0 c 2
 94 0 l 1
 94 311 l 1
 7 311 l 1
 7 410 l 1
211 86 m 1
 327 86 l 2
 486 86 552 190 552 383 c 0
 552 502 503 631 279 631 c 2
 211 631 l 1
 211 410 l 1
 318 410 l 1
 318 311 l 1
 211 311 l 1
 211 86 l 1
EndSplineSet
EndChar

StartChar: eth
Encoding: 240 240 189
Width: 630
Flags: MW
HStem: -5 95<269 347.5 269 394.5> 401 87<269 325 222.5 347.5> 760 20G
VStem: 68 103<202.5 293 202.5 312.5> 448 111<202.5 293>
LayerCount: 2
Fore
SplineSet
466 655 m 1
 521 590 559 467 559 285 c 0
 559 117 480 -5 309 -5 c 0
 216 -5 68 55 68 258 c 0
 68 367 154 488 291 488 c 0
 359 488 419 460 436 426 c 0
 437 425 442 425 443 424 c 1
 442 483 428 549 399 588 c 1
 343 532 l 1
 273 602 l 1
 319 649 l 1
 306 665 255 689 221 699 c 1
 221 760 l 1
 293 759 366 733 387 716 c 1
 452 780 l 1
 522 710 l 1
 466 655 l 1
308 90 m 0
 387 90 448 157 448 248 c 0
 448 338 387 401 308 401 c 0
 230 401 171 338 171 248 c 0
 171 157 230 90 308 90 c 0
EndSplineSet
EndChar

StartChar: Euro
Encoding: 8364 8364 190
Width: 663
Flags: MW
HStem: -5 96<391.5 450 391.5 451.5> 244 80<83 131 83 142 53 131 263 423 263 263> 404 80<83 131 53 142 263 483> 635 96<396 454.5>
LayerCount: 2
Fore
SplineSet
433 635 m 0
 359 635 292 593 263 484 c 1
 513 484 l 1
 483 404 l 1
 251 404 l 1
 250 391 249 377 249 363 c 0
 249 349 250 336 251 324 c 1
 453 324 l 1
 423 244 l 1
 263 244 l 1
 291 136 356 91 427 91 c 0
 473 91 516 107 549 145 c 1
 549 18 l 1
 513 3 473 -5 430 -5 c 0
 290 -5 178 79 142 244 c 1
 53 244 l 1
 83 324 l 1
 131 324 l 1
 130 337 130 350 130 363 c 0
 130 377 130 391 131 404 c 1
 53 404 l 1
 83 484 l 1
 142 484 l 1
 179 647 291 731 430 731 c 0
 489 731 543 716 589 686 c 1
 549 581 l 1
 517 618 476 635 433 635 c 0
EndSplineSet
EndChar

StartChar: sterling
Encoding: 163 163 191
Width: 514
Flags: MW
HStem: 0 80<60 132 60 132 251 427> 391 80<60 132 60 134 253 358> 471 168<60 343.5 134 343.5 283.5 343.5 283.5 358 283.5 358>
VStem: 132 119<80 391 80 391>
LayerCount: 2
Fore
SplineSet
60 0 m 1xd0
 60 80 l 1
 132 80 l 1
 132 391 l 1
 60 391 l 1xd0
 60 471 l 1
 134 471 l 1
 134 560 141 711 308 725 c 0
 387 732 441 712 463 697 c 1
 424 623 l 1
 405 634 362 639 325 639 c 0xb0
 242 639 254 539 253 471 c 1
 358 471 l 1
 358 391 l 1
 251 391 l 1
 251 80 l 1
 427 80 l 1
 427 0 l 1
 60 0 l 1xd0
EndSplineSet
EndChar

StartChar: cent
Encoding: 162 162 192
Width: 572
Flags: MW
HStem: -80 21G<276 355 276 276> 612 20G<276 355 355 355>
VStem: 68 125<226.5 330.5 226.5 345.5>
LayerCount: 2
Fore
SplineSet
319 92 m 0
 377 92 415 113 448 141 c 1
 492 77 l 1
 455 30 415 4 355 -3 c 1
 355 -80 l 1
 276 -80 l 1
 276 -1 l 1
 148 20 68 134 68 275 c 0
 68 416 150 528 276 550 c 1
 276 632 l 1
 355 632 l 1
 355 552 l 1
 419 546 465 519 503 472 c 1
 450 408 l 1
 428 434 392 460 324 460 c 0
 246 460 193 383 193 278 c 0
 193 175 240 92 319 92 c 0
EndSplineSet
EndChar

StartChar: endash
Encoding: 8211 8211 193
Width: 624
Flags: MW
HStem: 236 99<84 540 84 540>
LayerCount: 2
Fore
SplineSet
84 335 m 1
 540 335 l 1
 540 236 l 1
 84 236 l 1
 84 335 l 1
EndSplineSet
EndChar

StartChar: emdash
Encoding: 8212 8212 194
Width: 896
Flags: MW
HStem: 236 99<84 812 84 812>
LayerCount: 2
Fore
SplineSet
84 335 m 1
 812 335 l 1
 812 236 l 1
 84 236 l 1
 84 335 l 1
EndSplineSet
EndChar

StartChar: equal
Encoding: 61 61 195
Width: 624
Flags: MW
HStem: 137 99<84 540 84 540> 335 99<84 540 84 540>
LayerCount: 2
Fore
SplineSet
84 434 m 1
 540 434 l 1
 540 335 l 1
 84 335 l 1
 84 434 l 1
84 236 m 1
 540 236 l 1
 540 137 l 1
 84 137 l 1
 84 236 l 1
EndSplineSet
EndChar

StartChar: breve
Encoding: 728 728 196
Width: 377
Flags: MW
HStem: 620 122<67 222.5>
LayerCount: 2
Fore
SplineSet
189 679 m 0
 224 679 252 707 252 742 c 1
 310 742 l 1
 310 675 256 620 189 620 c 0
 122 620 67 675 67 742 c 1
 126 742 l 1
 126 707 154 679 189 679 c 0
EndSplineSet
EndChar

StartChar: divide
Encoding: 247 247 197
Width: 539
Flags: MW
HStem: -5 140<246.5 285> 236 99<43 499 43 499> 416 140<246.5 285>
VStem: 196 140<45.5 84 466.5 505>
LayerCount: 2
Fore
SplineSet
43 335 m 1
 499 335 l 1
 499 236 l 1
 43 236 l 1
 43 335 l 1
336 486 m 0
 336 447 304 416 266 416 c 0
 227 416 196 447 196 486 c 0
 196 524 227 556 266 556 c 0
 304 556 336 524 336 486 c 0
336 65 m 0
 336 26 304 -5 266 -5 c 0
 227 -5 196 26 196 65 c 0
 196 103 227 135 266 135 c 0
 304 135 336 103 336 65 c 0
EndSplineSet
EndChar

StartChar: Lslash
Encoding: 321 321 198
Width: 649
Flags: MW
HStem: 0 89<280 611 280 611> 700 20G<161 280 280 280>
VStem: 161 119<89 720 89 720 89 720>
LayerCount: 2
Fore
SplineSet
40 269 m 1
 372 502 l 1
 442 432 l 1
 110 199 l 1
 40 269 l 1
161 720 m 1
 280 720 l 1
 280 89 l 1
 611 89 l 1
 611 0 l 1
 161 0 l 1
 161 720 l 1
EndSplineSet
EndChar

StartChar: lslash
Encoding: 322 322 199
Width: 484
Flags: MW
HStem: -5 21G<263 293> 739 20G<123 242 242 242>
VStem: 123 119<174 186 186 759>
LayerCount: 2
Fore
SplineSet
43 329 m 1
 365 552 l 1
 435 482 l 1
 113 259 l 1
 43 329 l 1
242 168 m 2
 242 81 294 72 354 72 c 1
 354 61 354 0 354 0 c 1
 354 0 313 -5 273 -5 c 0
 253 -5 233 -4 218 -1 c 0
 129 17 123 135 123 174 c 0
 123 181 123 185 123 186 c 2
 123 759 l 1
 242 759 l 1
 242 168 l 2
EndSplineSet
EndChar

StartChar: ogonek
Encoding: 731 731 200
Width: 283
Flags: MW
HStem: -219 21G<141.5 183> 18 20G<188 188>
LayerCount: 2
Fore
SplineSet
222 16 m 1
 211 7 112 -46 112 -108 c 0
 112 -163 154 -182 183 -182 c 1
 183 -219 l 1
 100 -219 54 -167 54 -107 c 0
 54 -26 188 38 188 38 c 1
 202 33 219 18 222 16 c 1
EndSplineSet
EndChar

StartChar: dotaccent
Encoding: 729 729 201
Width: 279
Flags: MW
HStem: 624 140<120.5 159>
VStem: 70 140<674.5 713>
LayerCount: 2
Fore
SplineSet
210 694 m 0
 210 655 178 624 140 624 c 0
 101 624 70 655 70 694 c 0
 70 732 101 764 140 764 c 0
 178 764 210 732 210 694 c 0
EndSplineSet
EndChar

StartChar: hungarumlaut
Encoding: 733 733 202
Width: 438
Flags: MW
HStem: 620 139<89 102 23 208 89 242 308 321>
LayerCount: 2
Fore
SplineSet
208 759 m 1
 102 620 l 1
 23 620 l 1
 89 759 l 1
 208 759 l 1
427 759 m 1
 321 620 l 1
 242 620 l 1
 308 759 l 1
 427 759 l 1
EndSplineSet
EndChar

StartChar: quotesingle
Encoding: 39 39 203
Width: 245
Flags: MW
HStem: 551 21G<89 156 89 89> 700 20G<73 172 172 172>
LayerCount: 2
Fore
SplineSet
172 720 m 1
 156 551 l 1
 89 551 l 1
 73 720 l 1
 172 720 l 1
EndSplineSet
EndChar

StartChar: quotedbl
Encoding: 34 34 204
Width: 439
Flags: MW
HStem: 551 169<96 163 96 96 276 276 276 343>
LayerCount: 2
Fore
SplineSet
179 720 m 1
 163 551 l 1
 96 551 l 1
 80 720 l 1
 179 720 l 1
359 720 m 1
 343 551 l 1
 276 551 l 1
 260 720 l 1
 359 720 l 1
EndSplineSet
EndChar

StartChar: currency
Encoding: 164 164 205
Width: 662
Flags: MW
HStem: 101 21G<146 146 516 516> 610 20G<146 146 516 516>
VStem: 132 91<343 389> 439 92<342 388 342 407.5>
LayerCount: 2
Fore
SplineSet
531 365 m 0
 531 319 520 277 500 243 c 1
 586 171 l 1
 516 101 l 1
 448 183 l 1
 416 160 376 146 331 146 c 0
 285 146 245 159 214 183 c 1
 146 101 l 1
 76 171 l 1
 162 242 l 1
 142 277 132 320 132 366 c 0
 132 412 143 454 163 489 c 1
 76 560 l 1
 146 630 l 1
 215 547 l 1
 247 572 289 586 335 586 c 1
 380 585 418 572 449 549 c 1
 516 630 l 1
 586 560 l 1
 500 489 l 1
 520 454 531 411 531 365 c 0
329 209 m 0
 393 209 439 276 439 364 c 0
 439 451 398 524 333 524 c 0
 268 524 223 456 223 369 c 0
 223 281 263 210 329 209 c 0
EndSplineSet
EndChar

StartChar: less
Encoding: 60 60 206
Width: 630
Flags: MW
HStem: -6 21G<548 548> 545 20G<548 548>
LayerCount: 2
Fore
SplineSet
548 82 m 1
 548 -6 l 1
 28 248 l 1
 28 314 l 1
 548 565 l 1
 548 478 l 1
 120 281 l 1
 548 82 l 1
EndSplineSet
EndChar

StartChar: greater
Encoding: 62 62 207
Width: 632
Flags: MW
HStem: -6 21G<84 84> 545 20G<84 84>
LayerCount: 2
Fore
SplineSet
84 -6 m 1
 84 82 l 1
 512 281 l 1
 84 478 l 1
 84 565 l 1
 604 314 l 1
 604 248 l 1
 84 -6 l 1
EndSplineSet
EndChar

StartChar: guilsinglleft
Encoding: 8249 8249 208
Width: 447
Flags: MW
HStem: 30 21G<240 376 240 240> 501 20G<243 377 377 377>
LayerCount: 2
Fore
SplineSet
377 521 m 1
 176 276 l 1
 376 30 l 1
 240 30 l 1
 43 276 l 1
 243 521 l 1
 377 521 l 1
EndSplineSet
EndChar

StartChar: guilsinglright
Encoding: 8250 8250 209
Width: 447
Flags: MW
HStem: 30 21G<71 207 71 71> 501 20G<70 204 204 204>
LayerCount: 2
Fore
SplineSet
271 276 m 1
 70 521 l 1
 204 521 l 1
 404 276 l 1
 207 30 l 1
 71 30 l 1
 271 276 l 1
EndSplineSet
EndChar

StartChar: guillemotleft
Encoding: 171 171 210
Width: 719
Flags: MW
HStem: 30 21G<256 392 256 256 506 506 506 642> 501 20G<259 393 393 393 509 643 643 643>
LayerCount: 2
Fore
SplineSet
393 521 m 1
 192 276 l 1
 392 30 l 1
 256 30 l 1
 59 276 l 1
 259 521 l 1
 393 521 l 1
643 521 m 1
 442 276 l 1
 642 30 l 1
 506 30 l 1
 309 276 l 1
 509 521 l 1
 643 521 l 1
EndSplineSet
EndChar

StartChar: guillemotright
Encoding: 187 187 211
Width: 719
Flags: MW
HStem: 30 21G<77 213 77 77 327 463 327 327> 501 20G<76 210 210 210 326 460 460 460>
LayerCount: 2
Fore
SplineSet
527 276 m 1
 326 521 l 1
 460 521 l 1
 660 276 l 1
 463 30 l 1
 327 30 l 1
 527 276 l 1
277 276 m 1
 76 521 l 1
 210 521 l 1
 410 276 l 1
 213 30 l 1
 77 30 l 1
 277 276 l 1
EndSplineSet
EndChar

StartChar: asterisk
Encoding: 42 42 212
Width: 457
Flags: MW
HStem: 376 21G<236 236> 704 20G
LayerCount: 2
Fore
SplineSet
383 470 m 1
 264 515 l 1
 308 395 l 1
 236 376 l 1
 215 501 l 1
 134 403 l 1
 82 455 l 1
 180 537 l 1
 54 558 l 1
 74 630 l 1
 193 585 l 1
 149 704 l 1
 221 724 l 1
 242 599 l 1
 323 697 l 1
 375 644 l 1
 277 563 l 1
 403 542 l 1
 383 470 l 1
EndSplineSet
EndChar

StartChar: multiply
Encoding: 215 215 213
Width: 587
Flags: MW
HStem: 60 21G<77 213 77 77 374 510 374 374> 471 20G<76 210 210 210 377 511 511 511>
LayerCount: 2
Fore
SplineSet
511 491 m 1
 370 276 l 1
 510 60 l 1
 374 60 l 1
 303 197 l 1
 293 197 l 1
 213 60 l 1
 77 60 l 1
 217 276 l 1
 76 491 l 1
 210 491 l 1
 283 353 l 1
 293 353 l 1
 377 491 l 1
 511 491 l 1
EndSplineSet
EndChar

StartChar: questiondown
Encoding: 191 191 214
Width: 496
Flags: MW
HStem: -4 21G<226 313.5> 591 140<305 343.5>
VStem: 66 111<171 271 171 301.5> 254 140<642 680.5> 280 89<413 529 413 529>
LayerCount: 2
Fore
SplineSet
280 529 m 1xe8
 284 529 301 529 369 529 c 1
 369 297 177 349 177 193 c 0
 177 149 223 100 275 95 c 0
 369 86 388 112 403 119 c 1
 405 116 432 66 449 31 c 1
 411 6 343 -4 284 -4 c 0
 168 -4 66 70 66 197 c 0
 66 406 280 375 280 529 c 1
 280 529 l 1xe8
254 661 m 0xf0
 254 700 286 731 324 731 c 0
 363 731 394 700 394 661 c 0
 394 623 363 591 324 591 c 0
 286 591 254 623 254 661 c 0xf0
EndSplineSet
EndChar

StartChar: exclamdown
Encoding: 161 161 215
Width: 286
Flags: MW
HStem: 0 21G<83 202 202 202> 584 140<123.5 162>
VStem: 73 140<635 673.5>
LayerCount: 2
Fore
SplineSet
202 0 m 1
 186 521 l 1
 99 521 l 1
 83 0 l 1
 202 0 l 1
213 654 m 0
 213 616 181 584 143 584 c 0
 104 584 73 616 73 654 c 0
 73 693 104 724 143 724 c 0
 181 724 213 693 213 654 c 0
EndSplineSet
EndChar

StartChar: percent
Encoding: 37 37 216
Width: 787
Flags: MW
HStem: -4 21G<559.5 626.5> -1 21G<56 155 155 155> 700 20G<626 725 626 626> 704 20G<150.5 217.5>
VStem: 59 249<540 622> 468 249<99 181>
LayerCount: 2
Fore
SplineSet
184 724 m 0x9c
 251 724 308 663 308 581 c 0
 308 499 251 437 184 437 c 0
 117 437 59 499 59 581 c 0
 59 663 117 724 184 724 c 0x9c
184 497 m 0
 219 497 247 528 247 581 c 0
 247 633 219 664 184 664 c 0
 149 664 121 633 121 581 c 0
 121 528 149 497 184 497 c 0
593 283 m 0
 660 283 717 222 717 140 c 0
 717 58 660 -4 593 -4 c 0
 526 -4 468 58 468 140 c 0
 468 222 526 283 593 283 c 0
593 56 m 0
 628 56 656 87 656 140 c 0
 656 192 628 223 593 223 c 0
 558 223 530 192 530 140 c 0
 530 87 558 56 593 56 c 0
155 -1 m 1x6c
 725 720 l 1
 626 720 l 1
 56 -1 l 1
 155 -1 l 1x6c
EndSplineSet
EndChar
